{"glyphs":{"0":{"ha":911,"x_min":65,"x_max":846,"o":"m 458 -14 q 178 124 292 -14 q 65 483 65 261 q 177 842 65 706 q 456 978 289 978 q 734 842 622 978 q 846 482 846 706 q 735 123 846 260 q 458 -14 624 -14 m 456 110 q 644 206 574 110 q 714 483 714 303 q 643 758 714 661 q 456 856 572 856 q 268 759 339 856 q 197 483 197 663 q 268 207 197 304 q 456 110 339 110 z "},"1":{"ha":482,"x_min":43,"x_max":369,"o":"m 240 0 l 240 847 l 43 847 l 43 964 l 369 964 l 369 0 l 240 0 z "},"2":{"ha":751,"x_min":46,"x_max":693,"o":"m 46 0 l 46 79 l 401 454 q 513 590 482 538 q 543 699 543 643 q 497 813 543 771 q 374 856 450 856 q 146 711 232 856 l 54 788 q 378 978 168 978 q 590 901 510 978 q 671 700 671 824 q 636 547 671 613 q 503 379 601 482 l 249 117 l 693 117 l 693 0 l 46 0 z "},"3":{"ha":747,"x_min":42,"x_max":685,"o":"m 343 -14 q 42 125 150 -14 l 131 214 q 218 137 163 165 q 342 108 274 108 q 494 162 436 108 q 553 304 553 215 q 494 446 553 393 q 335 499 435 499 q 236 485 288 499 l 236 564 l 485 847 l 88 847 l 88 964 l 674 964 l 674 886 l 408 586 l 410 586 q 606 506 528 586 q 685 297 685 425 q 590 73 685 160 q 343 -14 494 -14 z "},"4":{"ha":831,"x_min":46,"x_max":785,"o":"m 46 251 l 46 332 l 397 964 l 544 964 l 207 368 l 517 368 l 517 638 l 646 638 l 646 368 l 785 368 l 785 251 l 646 251 l 646 0 l 517 0 l 517 251 l 46 251 z "},"5":{"ha":751,"x_min":39,"x_max":694,"o":"m 344 -14 q 39 125 147 -14 l 128 214 q 342 108 196 108 q 501 164 439 108 q 563 311 563 219 q 504 457 563 404 q 358 510 446 510 q 167 449 246 510 l 96 519 l 139 964 l 646 964 l 646 847 l 246 847 l 218 576 q 382 617 279 617 q 610 528 526 617 q 694 304 694 439 q 596 76 694 165 q 344 -14 497 -14 z "},"6":{"ha":783,"x_min":56,"x_max":729,"o":"m 392 -14 q 153 82 250 -14 q 56 317 56 178 q 144 571 56 446 l 428 964 l 579 964 l 326 618 q 422 635 364 635 q 640 546 550 635 q 729 321 729 457 q 631 84 729 182 q 392 -14 532 -14 m 392 108 q 538 170 478 108 q 597 321 597 232 q 538 471 597 410 q 392 532 478 532 q 245 472 304 532 q 186 321 186 411 q 245 169 186 231 q 392 108 304 108 z "},"7":{"ha":729,"x_min":43,"x_max":685,"o":"m 194 0 l 539 847 l 43 847 l 43 964 l 685 964 l 685 883 l 332 0 l 194 0 z "},"8":{"ha":764,"x_min":58,"x_max":706,"o":"m 382 -14 q 149 65 239 -14 q 58 267 60 143 q 102 417 58 351 q 224 517 146 483 q 134 603 165 547 q 103 725 103 658 q 182 908 103 836 q 382 979 261 979 q 582 908 503 979 q 661 725 661 836 q 630 603 661 658 q 540 517 599 547 q 662 417 618 483 q 706 267 706 351 q 616 65 706 144 q 382 -14 526 -14 m 269 606 q 291 584 269 606 q 382 563 313 563 q 496 606 451 563 q 540 717 540 649 q 496 826 540 783 q 382 868 451 868 q 269 826 313 868 q 225 717 225 783 q 269 606 225 649 m 240 154 q 268 129 240 154 q 382 104 296 104 q 524 154 468 104 q 579 283 579 204 q 524 411 579 361 q 382 461 468 461 q 240 411 296 461 q 185 283 185 361 q 240 154 185 204 z "},"9":{"ha":783,"x_min":54,"x_max":728,"o":"m 204 0 l 458 346 q 361 329 419 329 q 144 418 233 329 q 54 643 54 507 q 153 880 54 782 q 392 978 251 978 q 631 882 533 978 q 728 647 728 786 q 639 393 728 521 l 356 0 l 204 0 m 392 432 q 538 493 479 432 q 597 643 597 554 q 538 794 597 733 q 392 856 479 856 q 244 794 304 856 q 185 643 185 733 q 245 493 185 554 q 392 432 306 432 z "},"\r":{"ha":833,"x_min":0,"x_max":0,"o":""}," ":{"ha":289,"x_min":0,"x_max":0,"o":""},"!":{"ha":363,"x_min":88,"x_max":267,"o":"m 129 306 l 111 992 l 244 992 l 226 306 l 129 306 m 241 13 q 228 -1 241 13 q 176 -14 215 -14 q 113 13 138 -14 q 88 78 88 39 q 113 142 88 117 q 176 168 138 168 q 241 142 215 168 q 267 78 267 117 q 241 13 267 39 z "},"\"":{"ha":556,"x_min":96,"x_max":461,"o":"m 351 653 l 322 992 l 461 992 l 431 653 l 351 653 m 125 653 l 96 992 l 233 992 l 204 653 l 125 653 z "},"#":{"ha":889,"x_min":67,"x_max":821,"o":"m 164 0 l 208 297 l 67 297 l 67 399 l 225 399 l 253 585 l 110 585 l 110 686 l 268 686 l 311 964 l 418 964 l 375 686 l 565 686 l 608 964 l 715 964 l 672 686 l 821 686 l 821 585 l 657 585 l 629 399 l 778 399 l 778 297 l 614 297 l 568 0 l 461 0 l 507 297 l 315 297 l 271 0 l 164 0 m 332 399 l 522 399 l 550 585 l 360 585 l 332 399 z "},"$":{"ha":817,"x_min":79,"x_max":726,"o":"m 383 -139 l 383 -14 q 79 149 197 -6 l 167 236 q 383 103 253 113 l 383 440 q 290 478 324 461 q 213 526 256 494 q 150 606 171 558 q 129 718 129 653 q 200 894 131 826 q 383 975 269 963 l 383 1103 l 475 1103 l 475 975 q 710 844 621 956 l 622 757 q 475 857 553 838 l 475 547 q 549 518 519 532 q 616 480 579 504 q 674 428 653 456 q 711 356 696 400 q 726 258 726 313 q 660 78 726 147 q 475 -8 593 8 l 475 -139 l 383 -139 m 256 726 q 289 640 256 672 q 383 582 322 607 l 383 860 q 256 726 256 840 m 596 249 q 475 404 596 351 l 475 110 q 564 158 532 122 q 596 249 596 194 z "},"%":{"ha":917,"x_min":69,"x_max":849,"o":"m 264 588 q 126 644 183 588 q 69 783 69 701 q 126 921 69 864 q 264 978 183 978 q 403 921 346 978 q 461 783 461 864 q 404 644 461 701 q 264 588 347 588 m 86 0 l 704 964 l 831 964 l 213 0 l 86 0 m 264 686 q 332 713 306 686 q 358 783 358 740 q 332 852 358 825 q 264 879 306 879 q 198 853 224 879 q 172 783 172 826 q 198 713 172 740 q 264 686 224 686 m 651 -14 q 513 43 569 -14 q 456 182 456 100 q 513 320 456 264 q 651 376 569 376 q 791 319 733 376 q 849 182 849 263 q 792 43 849 100 q 651 -14 735 -14 m 651 85 q 719 112 693 85 q 746 182 746 139 q 719 251 746 224 q 651 278 692 278 q 585 251 611 278 q 558 182 558 224 q 585 112 558 139 q 651 85 611 85 z "},"&":{"ha":915,"x_min":81,"x_max":899,"o":"m 400 -14 q 169 67 257 -14 q 81 278 81 149 q 246 539 81 451 q 178 722 178 628 q 254 906 178 832 q 449 979 331 979 q 596 941 531 979 q 701 842 661 903 l 611 760 q 449 858 540 858 q 344 820 385 858 q 303 724 303 782 q 322 642 303 678 q 386 558 340 607 l 899 0 l 746 0 l 663 89 q 400 -14 560 -14 m 206 281 q 260 153 206 200 q 404 104 315 106 q 581 176 513 106 l 313 464 q 206 281 206 401 z "},"'":{"ha":329,"x_min":96,"x_max":233,"o":"m 125 653 l 96 992 l 233 992 l 204 653 l 125 653 z "},"(":{"ha":421,"x_min":64,"x_max":379,"o":"m 307 -161 q 128 94 193 -65 q 64 432 64 253 q 128 771 64 613 q 307 1025 193 929 l 379 960 q 227 737 281 874 q 174 432 174 600 q 227 127 174 264 q 379 -96 281 -10 l 307 -161 z "},")":{"ha":419,"x_min":42,"x_max":357,"o":"m 114 -161 l 42 -96 q 193 127 140 -10 q 246 432 246 264 q 193 738 246 601 q 42 960 140 874 l 114 1025 q 292 771 228 929 q 357 432 357 613 q 292 94 357 253 q 114 -161 228 -65 z "},"*":{"ha":681,"x_min":68,"x_max":608,"o":"m 317 475 l 306 696 l 121 576 l 68 681 l 274 758 l 104 893 l 186 975 l 324 807 l 401 1011 l 507 958 l 386 775 l 608 764 l 590 650 l 375 707 l 433 493 l 317 475 z "},"+":{"ha":753,"x_min":82,"x_max":671,"o":"m 82 408 l 82 521 l 319 521 l 319 774 l 435 774 l 435 521 l 671 521 l 671 408 l 435 408 l 435 156 l 319 156 l 319 408 l 82 408 z "},",":{"ha":382,"x_min":99,"x_max":293,"o":"m 99 -153 l 174 -10 q 128 19 147 -4 q 108 74 108 42 q 135 141 108 114 q 201 168 163 168 q 266 140 239 168 q 293 74 293 113 q 263 -18 293 39 l 171 -192 l 99 -153 z "},"-":{"ha":640,"x_min":92,"x_max":549,"o":"m 92 294 l 92 413 l 549 413 l 549 294 l 92 294 z "},".":{"ha":403,"x_min":111,"x_max":292,"o":"m 266 13 q 253 -1 266 13 q 201 -14 240 -14 q 137 13 163 -14 q 111 78 111 39 q 137 142 111 117 q 201 168 163 168 q 266 142 240 168 q 292 78 292 117 q 266 13 292 39 z "},"/":{"ha":542,"x_min":19,"x_max":522,"o":"m 19 -56 l 406 1018 l 522 1018 l 138 -56 l 19 -56 z "},":":{"ha":376,"x_min":97,"x_max":278,"o":"m 252 446 q 239 433 252 446 q 188 419 226 419 q 123 446 149 419 q 97 511 97 472 q 123 576 97 550 q 188 601 149 601 q 252 576 226 601 q 278 511 278 550 q 252 446 278 472 m 252 13 q 239 -1 252 13 q 188 -14 226 -14 q 123 13 149 -14 q 97 78 97 39 q 123 142 97 117 q 188 168 149 168 q 252 142 226 168 q 278 78 278 117 q 252 13 278 39 z "},";":{"ha":374,"x_min":92,"x_max":286,"o":"m 252 446 q 239 433 252 446 q 188 419 226 419 q 124 446 149 419 q 99 511 99 472 q 124 576 99 550 q 188 601 149 601 q 252 576 226 601 q 278 511 278 550 q 252 446 278 472 m 92 -153 l 167 -10 q 121 19 140 -4 q 101 74 101 42 q 128 140 101 113 q 193 168 156 168 q 258 140 231 168 q 286 74 286 113 q 256 -18 286 39 l 163 -192 l 92 -153 z "},"<":{"ha":764,"x_min":76,"x_max":667,"o":"m 667 157 l 76 421 l 76 511 l 667 775 l 667 649 l 235 465 l 667 282 l 667 157 z "},"=":{"ha":753,"x_min":82,"x_max":671,"o":"m 82 568 l 82 681 l 671 681 l 671 568 l 82 568 m 82 249 l 82 361 l 671 361 l 671 249 l 82 249 z "},">":{"ha":764,"x_min":97,"x_max":688,"o":"m 97 649 l 97 775 l 688 511 l 688 421 l 97 157 l 97 282 l 529 465 l 97 649 z "},"?":{"ha":701,"x_min":56,"x_max":633,"o":"m 304 306 l 303 569 l 340 571 q 458 617 413 572 q 504 729 504 661 q 459 840 504 797 q 340 883 414 883 q 147 756 208 883 l 56 832 q 172 960 97 914 q 346 1006 247 1006 q 553 931 472 1006 q 633 738 633 856 q 576 569 633 640 q 421 471 519 499 l 413 306 l 304 306 m 422 13 q 409 -1 422 13 q 357 -14 396 -14 q 292 13 318 -14 q 267 78 267 39 q 292 142 267 117 q 357 168 318 168 q 422 142 396 168 q 447 78 447 117 q 422 13 447 39 z "},"@":{"ha":1042,"x_min":74,"x_max":969,"o":"m 622 169 q 500 125 581 125 q 362 184 419 125 q 304 328 304 243 q 362 473 304 414 q 500 532 419 532 q 622 488 581 532 l 622 524 l 713 524 l 713 217 l 851 217 q 867 339 867 264 q 778 593 867 501 q 535 685 690 685 q 279 587 376 685 q 182 326 182 489 q 276 69 182 165 q 522 -28 369 -28 q 757 53 665 -28 l 826 -18 q 525 -125 703 -125 q 204 5 335 -125 q 74 328 74 135 q 207 652 74 521 q 533 783 340 783 q 847 657 725 783 q 969 332 969 531 q 919 135 969 215 l 622 135 l 622 169 m 506 213 q 585 244 556 213 q 615 329 615 276 q 585 414 615 382 q 506 446 556 446 q 428 413 458 446 q 397 329 397 381 q 428 245 397 278 q 506 213 458 213 z "},"A":{"ha":967,"x_min":43,"x_max":925,"o":"m 43 0 l 438 964 l 532 964 l 925 0 l 783 0 l 696 218 l 268 218 l 182 0 l 43 0 m 314 332 l 651 332 l 483 754 l 314 332 z "},"B":{"ha":865,"x_min":114,"x_max":803,"o":"m 114 0 l 114 964 l 475 964 q 685 893 610 964 q 761 718 761 822 q 644 515 758 586 q 761 416 719 479 q 803 272 803 353 q 718 77 803 154 q 486 0 633 0 l 114 0 m 472 850 l 244 850 l 244 564 l 478 564 q 589 601 549 564 q 629 707 629 638 q 588 813 629 776 q 472 850 546 850 m 497 450 l 244 450 l 244 114 l 493 114 q 622 162 574 114 q 671 282 671 210 q 623 402 671 354 q 497 450 575 450 z "},"C":{"ha":956,"x_min":65,"x_max":910,"o":"m 551 -14 q 204 130 343 -14 q 65 482 65 274 q 203 834 65 690 q 550 978 342 978 q 903 833 758 978 l 813 743 q 550 853 711 853 q 299 748 397 853 q 200 482 200 643 q 299 215 200 319 q 550 111 397 111 q 819 222 718 111 l 910 133 q 551 -14 769 -14 z "},"D":{"ha":1028,"x_min":114,"x_max":961,"o":"m 114 0 l 114 964 l 471 964 q 822 826 682 964 q 961 482 961 689 q 822 138 961 276 q 474 0 682 0 l 114 0 m 468 844 l 244 844 l 244 119 l 468 119 q 726 221 626 119 q 826 483 826 322 q 726 744 826 643 q 468 844 626 844 z "},"E":{"ha":819,"x_min":114,"x_max":756,"o":"m 114 0 l 114 964 l 749 964 l 749 844 l 244 844 l 244 550 l 710 550 l 710 436 l 244 436 l 244 119 l 756 119 l 756 0 l 114 0 z "},"F":{"ha":786,"x_min":114,"x_max":729,"o":"m 114 0 l 114 964 l 729 964 l 729 844 l 244 844 l 244 543 l 706 543 l 706 424 l 244 424 l 244 0 l 114 0 z "},"G":{"ha":1074,"x_min":65,"x_max":1013,"o":"m 550 -14 q 206 131 347 -14 q 65 483 65 275 q 207 835 65 692 q 558 978 349 978 q 771 933 674 978 q 933 806 868 888 l 843 715 q 722 817 797 782 q 558 853 647 853 q 300 749 400 853 q 200 483 200 646 q 298 217 200 321 q 546 113 396 113 q 772 185 686 111 q 874 394 858 258 l 540 394 l 540 514 l 1013 514 l 1013 494 q 886 118 1013 250 q 550 -14 760 -14 z "},"H":{"ha":981,"x_min":114,"x_max":867,"o":"m 114 0 l 114 964 l 244 964 l 244 558 l 736 558 l 736 964 l 867 964 l 867 0 l 736 0 l 736 439 l 244 439 l 244 0 l 114 0 z "},"I":{"ha":358,"x_min":114,"x_max":244,"o":"m 114 0 l 114 964 l 244 964 l 244 0 l 114 0 z "},"J":{"ha":688,"x_min":42,"x_max":585,"o":"m 292 -14 q 42 107 129 -14 l 133 192 q 288 111 190 111 q 408 159 363 111 q 454 294 454 207 l 454 964 l 585 964 l 585 301 q 503 72 585 158 q 292 -14 421 -14 z "},"K":{"ha":925,"x_min":114,"x_max":883,"o":"m 114 0 l 114 964 l 244 964 l 244 522 l 700 964 l 869 964 l 392 504 l 883 0 l 710 0 l 244 482 l 244 0 l 114 0 z "},"L":{"ha":767,"x_min":114,"x_max":719,"o":"m 114 0 l 114 964 l 244 964 l 244 119 l 719 119 l 719 0 l 114 0 z "},"M":{"ha":1165,"x_min":114,"x_max":1051,"o":"m 114 0 l 114 964 l 206 964 l 583 343 l 960 964 l 1051 964 l 1051 0 l 921 0 l 921 678 l 629 197 l 538 197 l 244 678 l 244 0 l 114 0 z "},"N":{"ha":986,"x_min":114,"x_max":872,"o":"m 114 0 l 114 964 l 206 964 l 742 249 l 742 964 l 872 964 l 872 0 l 781 0 l 244 715 l 244 0 l 114 0 z "},"O":{"ha":1103,"x_min":65,"x_max":1038,"o":"m 897 130 q 827 58 897 130 q 553 -14 757 -14 q 207 131 349 -14 q 65 483 65 276 q 206 834 65 690 q 550 978 346 978 q 897 834 756 978 q 1038 482 1038 690 q 897 130 1038 274 m 550 111 q 803 216 704 111 q 903 483 903 321 q 803 749 903 644 q 550 853 704 853 q 299 749 397 853 q 200 483 200 644 q 299 216 200 321 q 550 111 397 111 z "},"P":{"ha":842,"x_min":114,"x_max":783,"o":"m 114 0 l 114 964 l 472 964 q 695 883 607 964 q 783 669 783 801 q 695 456 783 538 q 472 375 607 375 l 244 375 l 244 0 l 114 0 m 464 850 l 244 850 l 244 489 l 464 489 q 599 538 547 489 q 651 669 651 588 q 599 801 651 751 q 464 850 547 850 z "},"Q":{"ha":1135,"x_min":65,"x_max":1099,"o":"m 554 -14 q 207 131 349 -14 q 65 483 65 276 q 206 834 65 690 q 551 978 346 978 q 897 834 756 978 q 1038 482 1038 690 q 938 178 1038 308 l 1099 17 l 1015 -68 l 856 92 q 554 -14 726 -14 m 551 111 q 765 182 675 111 l 564 383 l 649 468 l 846 269 q 903 483 903 364 q 803 749 903 644 q 551 853 704 853 q 299 749 397 853 q 200 483 200 644 q 299 216 200 321 q 551 111 399 111 z "},"R":{"ha":875,"x_min":114,"x_max":835,"o":"m 114 0 l 114 964 l 468 964 q 687 888 604 964 q 769 692 769 811 q 693 500 769 574 q 489 421 617 426 l 835 0 l 669 0 l 329 419 l 244 419 l 244 0 l 114 0 m 464 850 l 244 850 l 244 529 l 463 529 q 592 572 546 529 q 639 689 639 614 q 592 805 639 760 q 464 850 546 850 z "},"S":{"ha":771,"x_min":44,"x_max":708,"o":"m 382 -14 q 44 149 171 -14 l 133 238 q 386 108 226 108 q 524 146 472 108 q 576 249 576 183 q 551 334 576 299 q 483 390 525 369 q 392 428 442 411 q 292 467 342 446 q 200 517 242 489 q 133 597 158 546 q 107 718 107 649 q 192 908 107 838 q 410 978 278 978 q 701 844 594 978 l 613 756 q 407 856 528 856 q 283 822 328 856 q 238 726 238 788 q 263 649 238 681 q 331 597 289 617 q 422 560 372 578 q 523 521 472 543 q 615 468 574 499 q 683 384 657 438 q 708 258 708 331 q 621 58 708 131 q 382 -14 533 -14 z "},"T":{"ha":868,"x_min":42,"x_max":826,"o":"m 369 0 l 369 844 l 42 844 l 42 964 l 826 964 l 826 844 l 500 844 l 500 0 l 369 0 z "},"U":{"ha":949,"x_min":103,"x_max":847,"o":"m 475 -14 q 209 92 315 -14 q 103 357 103 197 l 103 964 l 233 964 l 233 360 q 301 179 233 247 q 475 111 369 111 q 648 179 581 111 q 715 358 715 247 l 715 964 l 847 964 l 847 356 q 742 91 847 196 q 475 -14 636 -14 z "},"V":{"ha":956,"x_min":43,"x_max":913,"o":"m 429 0 l 43 964 l 185 964 l 478 214 l 772 964 l 913 964 l 524 0 l 429 0 z "},"W":{"ha":1363,"x_min":44,"x_max":1317,"o":"m 360 0 l 44 964 l 175 964 l 406 236 l 633 964 l 728 964 l 956 236 l 1188 964 l 1317 964 l 1003 0 l 910 0 l 681 728 l 453 0 l 360 0 z "},"X":{"ha":960,"x_min":42,"x_max":918,"o":"m 42 0 l 401 493 l 58 964 l 214 964 l 488 585 l 756 964 l 903 964 l 571 500 l 918 0 l 765 0 l 485 410 l 189 0 l 42 0 z "},"Y":{"ha":924,"x_min":40,"x_max":885,"o":"m 397 0 l 397 424 l 40 964 l 192 964 l 464 547 l 736 964 l 885 964 l 528 429 l 528 0 l 397 0 z "},"Z":{"ha":810,"x_min":54,"x_max":751,"o":"m 54 0 l 54 90 l 578 844 l 83 844 l 83 964 l 751 964 l 751 875 l 228 119 l 742 119 l 742 0 l 54 0 z "},"[":{"ha":469,"x_min":110,"x_max":419,"o":"m 110 -133 l 110 992 l 419 992 l 419 893 l 215 893 l 215 -33 l 419 -33 l 419 -133 l 110 -133 z "},"\\":{"ha":542,"x_min":19,"x_max":522,"o":"m 406 -56 l 19 1018 l 138 1018 l 522 -56 l 406 -56 z "},"]":{"ha":469,"x_min":50,"x_max":360,"o":"m 50 -133 l 50 -33 l 254 -33 l 254 893 l 50 893 l 50 992 l 360 992 l 360 -133 l 50 -133 z "},"^":{"ha":629,"x_min":74,"x_max":556,"o":"m 450 635 l 315 878 l 179 635 l 74 635 l 272 992 l 356 992 l 556 635 l 450 635 z "},"_":{"ha":701,"x_min":28,"x_max":674,"o":"m 28 -172 l 28 -64 l 674 -64 l 674 -172 l 28 -172 z "},"`":{"ha":390,"x_min":56,"x_max":335,"o":"m 278 728 l 56 910 l 154 1007 l 335 783 l 278 728 z "},"a":{"ha":808,"x_min":50,"x_max":718,"o":"m 372 -14 q 143 85 236 -14 q 50 329 50 185 q 143 574 50 474 q 372 674 236 674 q 592 569 517 674 l 592 660 l 718 660 l 718 0 l 592 0 l 592 89 q 372 -14 515 -14 m 240 168 q 270 136 240 168 q 393 104 300 104 q 543 167 486 104 q 600 329 600 229 q 542 493 600 431 q 392 556 485 556 q 239 492 299 556 q 179 331 179 429 q 240 168 179 232 z "},"b":{"ha":808,"x_min":92,"x_max":758,"o":"m 92 0 l 92 992 l 217 992 l 217 568 q 439 674 296 674 q 666 574 574 674 q 758 329 758 475 q 666 85 758 185 q 439 -14 574 -14 q 217 90 294 -14 l 217 0 l 92 0 m 418 104 q 572 167 513 104 q 631 331 631 231 q 572 492 631 429 q 419 556 513 556 q 268 492 326 556 q 210 329 210 429 q 267 167 210 231 q 418 104 325 104 z "},"c":{"ha":679,"x_min":49,"x_max":647,"o":"m 393 -14 q 148 85 247 -14 q 49 331 49 185 q 148 574 49 475 q 393 674 247 674 q 647 563 549 674 l 564 479 q 393 553 501 553 q 238 490 299 553 q 178 331 178 428 q 238 170 178 233 q 393 107 299 107 q 565 181 503 107 l 647 97 q 393 -14 551 -14 z "},"d":{"ha":808,"x_min":50,"x_max":718,"o":"m 371 -14 q 142 85 235 -14 q 50 329 50 185 q 142 574 50 475 q 369 674 235 674 q 592 568 513 674 l 592 992 l 718 992 l 718 0 l 592 0 l 592 90 q 371 -14 517 -14 m 392 104 q 542 167 485 104 q 600 329 600 231 q 542 492 600 429 q 390 556 483 556 q 238 492 297 556 q 179 331 179 429 q 238 167 179 231 q 392 104 297 104 z "},"e":{"ha":744,"x_min":49,"x_max":700,"o":"m 397 -14 q 149 85 249 -14 q 49 331 49 183 q 147 574 49 475 q 389 674 246 674 q 612 582 524 674 q 700 350 700 490 q 693 283 700 317 l 176 283 q 251 152 192 200 q 397 104 310 104 q 579 182 515 104 l 660 100 q 397 -14 561 -14 m 386 558 q 247 513 303 558 q 176 388 192 467 l 578 388 q 517 513 567 468 q 386 558 467 558 z "},"f":{"ha":554,"x_min":24,"x_max":613,"o":"m 186 0 l 186 546 l 24 546 l 24 660 l 186 660 l 186 758 q 256 937 186 868 q 438 1006 326 1006 q 613 929 539 1006 l 531 849 q 436 889 490 889 q 344 854 376 889 q 311 758 311 819 l 311 660 l 521 660 l 521 546 l 311 546 l 311 0 l 186 0 z "},"g":{"ha":804,"x_min":49,"x_max":713,"o":"m 365 11 q 139 106 229 11 q 49 343 49 200 q 139 578 49 483 q 364 674 229 674 q 588 571 511 674 l 588 660 l 713 660 l 713 26 q 617 -203 713 -117 q 365 -290 521 -290 q 60 -147 160 -290 l 140 -65 q 368 -171 222 -171 q 528 -118 469 -171 q 588 26 588 -65 l 588 114 q 365 11 511 11 m 390 129 q 538 188 482 129 q 594 342 594 246 q 538 497 594 438 q 389 556 482 556 q 237 497 296 556 q 178 343 178 438 q 237 189 178 249 q 390 129 296 129 z "},"h":{"ha":761,"x_min":92,"x_max":683,"o":"m 92 0 l 92 992 l 217 992 l 217 574 q 425 674 292 674 q 610 599 538 674 q 683 410 683 525 l 683 0 l 558 0 l 558 385 q 511 509 558 461 q 389 557 464 557 q 265 508 314 557 q 217 385 217 460 l 217 0 l 92 0 z "},"i":{"ha":311,"x_min":76,"x_max":235,"o":"m 213 815 q 201 803 213 815 q 156 792 190 792 q 99 815 121 792 q 76 872 76 838 q 99 928 76 906 q 156 951 121 951 q 213 928 190 951 q 235 872 235 906 q 213 815 235 838 m 93 0 l 93 660 l 218 660 l 218 0 l 93 0 z "},"j":{"ha":319,"x_min":-178,"x_max":246,"o":"m 224 815 q 213 803 224 815 q 167 792 201 792 q 110 815 132 792 q 89 872 89 838 q 111 928 89 906 q 167 951 133 951 q 224 928 201 951 q 246 872 246 906 q 224 815 246 838 m 8 -290 q -178 -210 -106 -290 l -97 -128 q 0 -174 -58 -174 q 74 -147 44 -174 q 103 -71 103 -121 l 103 660 l 228 660 l 228 -69 q 165 -232 228 -174 q 8 -290 101 -290 z "},"k":{"ha":692,"x_min":92,"x_max":675,"o":"m 92 0 l 92 992 l 217 992 l 217 349 l 511 660 l 663 660 l 358 343 l 675 0 l 514 0 l 217 326 l 217 0 l 92 0 z "},"l":{"ha":308,"x_min":92,"x_max":217,"o":"m 92 0 l 92 992 l 217 992 l 217 0 l 92 0 z "},"m":{"ha":1188,"x_min":92,"x_max":1110,"o":"m 92 0 l 92 660 l 217 660 l 217 583 q 415 674 289 674 q 543 642 486 674 q 632 554 600 611 q 726 642 667 610 q 856 674 785 674 q 1037 605 964 674 q 1110 424 1110 536 l 1110 0 l 983 0 l 983 399 q 940 514 983 471 q 826 557 896 557 q 709 514 756 557 q 663 400 663 471 l 663 0 l 538 0 l 538 399 q 493 514 538 471 q 379 557 449 557 q 263 514 310 557 q 217 400 217 471 l 217 0 l 92 0 z "},"n":{"ha":761,"x_min":92,"x_max":683,"o":"m 92 0 l 92 660 l 217 660 l 217 574 q 425 674 292 674 q 610 594 536 674 q 683 410 683 515 l 683 0 l 558 0 l 558 385 q 511 509 558 461 q 389 557 464 557 q 265 508 314 557 q 217 385 217 460 l 217 0 l 92 0 z "},"o":{"ha":786,"x_min":49,"x_max":738,"o":"m 638 86 q 588 36 638 86 q 393 -14 538 -14 q 149 87 249 -14 q 49 332 49 188 q 148 575 49 476 q 393 674 247 674 q 638 574 538 674 q 738 332 738 475 q 638 86 738 186 m 239 170 q 269 139 239 170 q 393 107 300 107 q 547 170 486 107 q 608 332 608 233 q 547 490 608 428 q 393 553 486 553 q 239 490 300 553 q 178 332 178 428 q 239 170 178 233 z "},"p":{"ha":808,"x_min":92,"x_max":758,"o":"m 92 -276 l 92 660 l 217 660 l 217 568 q 439 674 296 674 q 666 574 574 674 q 758 329 758 475 q 666 85 758 185 q 439 -14 574 -14 q 217 90 294 -14 l 217 -276 l 92 -276 m 418 104 q 572 167 513 104 q 631 331 631 231 q 572 492 631 429 q 419 556 513 556 q 268 492 326 556 q 210 329 210 429 q 267 167 210 231 q 418 104 325 104 z "},"q":{"ha":810,"x_min":50,"x_max":718,"o":"m 374 -14 q 143 85 236 -14 q 50 329 50 185 q 143 574 50 474 q 372 674 236 674 q 593 569 515 674 l 593 660 l 718 660 l 718 -276 l 593 -276 l 593 89 q 374 -14 515 -14 m 240 168 q 270 136 240 168 q 393 104 300 104 q 543 167 486 104 q 600 329 600 229 q 543 493 600 431 q 393 556 486 556 q 239 492 299 556 q 179 331 179 429 q 240 168 179 232 z "},"r":{"ha":582,"x_min":92,"x_max":561,"o":"m 92 0 l 92 660 l 217 660 l 217 582 q 396 674 275 674 q 561 599 496 674 l 479 514 q 375 556 438 556 q 260 510 303 556 q 217 376 217 464 l 217 0 l 92 0 z "},"s":{"ha":593,"x_min":33,"x_max":544,"o":"m 301 -14 q 33 107 131 -14 l 114 188 q 303 100 183 100 q 425 176 425 100 q 388 239 425 215 q 300 277 351 263 q 197 310 249 292 q 108 370 144 328 q 71 479 71 413 q 134 622 71 569 q 307 674 197 674 q 544 565 464 674 l 464 485 q 303 560 406 560 q 221 541 250 560 q 192 489 192 522 q 228 432 192 454 q 316 396 264 410 q 420 363 368 382 q 508 300 472 344 q 544 188 544 256 q 478 40 544 94 q 301 -14 413 -14 z "},"t":{"ha":511,"x_min":31,"x_max":481,"o":"m 193 0 l 193 546 l 31 546 l 31 660 l 193 660 l 193 936 l 318 936 l 318 660 l 481 660 l 481 546 l 318 546 l 318 0 l 193 0 z "},"u":{"ha":717,"x_min":75,"x_max":640,"o":"m 562 67 q 523 26 562 67 q 358 -14 483 -14 q 154 67 233 -14 q 75 276 75 149 l 75 660 l 200 660 l 200 282 q 242 153 200 200 q 358 107 285 107 q 474 153 432 107 q 515 282 515 200 l 515 660 l 640 660 l 640 276 q 562 67 640 147 z "},"v":{"ha":710,"x_min":15,"x_max":694,"o":"m 318 0 l 15 660 l 154 660 l 357 194 l 561 660 l 694 660 l 392 0 l 318 0 z "},"w":{"ha":1042,"x_min":19,"x_max":1022,"o":"m 281 0 l 19 660 l 150 660 l 318 203 l 485 660 l 557 660 l 724 203 l 892 660 l 1022 660 l 763 0 l 689 0 l 521 438 l 353 0 l 281 0 z "},"x":{"ha":700,"x_min":24,"x_max":676,"o":"m 24 0 l 275 339 l 36 660 l 188 660 l 356 429 l 518 660 l 664 660 l 429 340 l 676 0 l 525 0 l 349 249 l 171 0 l 24 0 z "},"y":{"ha":714,"x_min":22,"x_max":692,"o":"m 119 -276 l 282 57 l 22 660 l 161 660 l 351 192 l 553 660 l 692 660 l 383 -6 l 258 -276 l 119 -276 z "},"z":{"ha":621,"x_min":39,"x_max":578,"o":"m 39 0 l 39 68 l 396 546 l 63 546 l 63 660 l 578 660 l 578 592 l 219 114 l 569 114 l 569 0 l 39 0 z "},"{":{"ha":449,"x_min":42,"x_max":399,"o":"m 329 -133 q 169 -72 221 -133 q 128 108 117 -10 l 144 281 q 81 383 154 383 l 42 383 l 42 479 l 81 479 q 144 582 154 479 l 128 750 q 168 931 115 869 q 329 992 221 992 l 399 992 l 399 893 l 340 893 q 252 861 278 893 q 233 756 226 829 l 247 603 q 239 496 254 538 q 181 431 224 454 q 247 260 260 388 l 233 103 q 253 -2 228 29 q 340 -33 278 -33 l 399 -33 l 399 -133 l 329 -133 z "},"|":{"ha":386,"x_min":136,"x_max":250,"o":"m 136 -181 l 136 1061 l 250 1061 l 250 -181 l 136 -181 z "},"}":{"ha":449,"x_min":50,"x_max":407,"o":"m 119 -133 l 50 -133 l 50 -33 l 108 -33 q 196 -2 171 -33 q 215 103 221 29 l 201 260 q 268 431 189 388 q 210 496 225 454 q 201 603 194 538 l 215 756 q 197 861 222 829 q 108 893 171 893 l 50 893 l 50 992 l 119 992 q 281 931 228 992 q 321 750 333 869 l 304 582 q 368 479 294 479 l 407 479 l 407 383 l 368 383 q 304 281 294 383 l 321 108 q 280 -72 332 -10 q 119 -133 228 -133 z "},"~":{"ha":729,"x_min":63,"x_max":667,"o":"m 485 386 q 363 418 432 386 q 251 450 293 450 q 135 394 182 450 l 63 465 q 247 568 133 568 q 374 536 304 568 q 482 504 444 504 q 596 560 547 504 l 667 489 q 485 386 596 386 z "}," ":{"ha":289,"x_min":0,"x_max":0,"o":""},"¡":{"ha":371,"x_min":94,"x_max":274,"o":"m 249 517 q 236 505 249 517 q 185 492 224 492 q 120 517 146 492 q 94 582 94 543 q 120 648 94 622 q 185 674 146 674 q 249 648 224 674 q 274 582 274 622 q 249 517 274 543 m 118 -276 l 136 354 l 233 354 l 251 -276 l 118 -276 z "},"¢":{"ha":724,"x_min":68,"x_max":667,"o":"m 356 14 l 356 143 q 149 258 231 163 q 68 482 68 353 q 149 707 68 613 q 356 821 229 801 l 356 950 l 447 950 l 447 824 q 667 715 582 813 l 585 632 q 447 703 531 692 l 447 261 q 585 333 532 272 l 667 250 q 447 140 583 151 l 447 14 l 356 14 m 197 483 q 240 343 197 401 q 356 265 283 285 l 356 699 q 240 622 283 679 q 197 483 197 564 z "},"£":{"ha":860,"x_min":92,"x_max":779,"o":"m 92 0 l 92 119 l 224 119 l 224 413 l 92 413 l 92 517 l 224 517 l 224 671 q 307 894 224 811 q 521 978 390 978 q 779 846 693 978 l 693 760 q 619 834 658 810 q 519 858 581 858 q 400 811 446 858 q 354 683 354 764 l 354 517 l 625 517 l 625 413 l 354 413 l 354 119 l 760 119 l 760 0 l 92 0 z "},"¤":{"ha":783,"x_min":74,"x_max":708,"o":"m 140 165 l 74 229 l 161 318 q 108 482 108 390 q 161 646 108 575 l 74 733 l 140 800 l 228 711 q 392 760 300 760 q 554 711 481 760 l 644 800 l 708 733 l 621 647 q 675 483 675 576 q 621 317 675 388 l 708 229 l 644 165 l 556 253 q 392 204 482 204 q 228 253 300 204 l 140 165 m 280 365 q 302 342 280 365 q 392 319 324 319 q 503 365 460 319 q 547 483 547 411 q 503 599 547 553 q 392 644 460 644 q 280 599 324 644 q 236 483 236 553 q 280 365 236 411 z "},"¥":{"ha":896,"x_min":79,"x_max":817,"o":"m 108 310 l 108 414 l 383 414 l 383 419 l 308 553 l 108 553 l 108 656 l 251 656 l 79 964 l 231 964 l 449 536 l 668 964 l 817 964 l 643 656 l 788 656 l 788 553 l 585 553 l 514 426 l 514 414 l 788 414 l 788 310 l 514 310 l 514 0 l 383 0 l 383 310 l 108 310 z "},"¦":{"ha":386,"x_min":136,"x_max":250,"o":"m 136 546 l 136 1061 l 250 1061 l 250 546 l 136 546 m 136 -181 l 136 335 l 250 335 l 250 -181 l 136 -181 z "},"§":{"ha":718,"x_min":86,"x_max":632,"o":"m 346 -168 q 88 -40 174 -168 l 169 42 q 350 -51 235 -51 q 445 -24 411 -51 q 479 47 479 3 q 439 124 479 94 q 341 170 399 153 q 226 210 283 188 q 127 283 168 233 q 86 410 86 333 q 201 586 86 528 q 118 756 118 643 q 187 917 118 857 q 374 978 256 978 q 632 851 544 978 l 550 769 q 368 861 485 861 q 273 834 307 861 q 239 763 239 807 q 279 686 239 715 q 377 640 319 657 q 493 599 435 622 q 592 526 551 576 q 632 400 632 476 q 517 224 632 281 q 600 56 600 167 q 532 -107 600 -46 q 346 -168 464 -168 m 208 421 q 220 370 208 392 q 259 333 232 349 q 308 308 286 317 q 371 286 329 300 q 474 314 436 286 q 511 389 511 342 q 499 440 511 418 q 460 477 488 461 q 412 501 432 493 q 349 524 392 510 q 246 497 283 524 q 208 421 208 469 z "},"¨":{"ha":603,"x_min":83,"x_max":519,"o":"m 219 794 q 208 782 219 794 q 163 771 197 771 q 106 794 128 771 q 83 851 83 817 q 106 908 83 885 q 163 931 128 931 q 219 908 197 931 q 242 851 242 885 q 219 794 242 817 m 497 794 q 486 782 497 794 q 440 771 475 771 q 383 794 406 771 q 361 851 361 817 q 383 908 361 885 q 440 931 406 931 q 497 908 475 931 q 519 851 519 885 q 497 794 519 817 z "},"©":{"ha":1157,"x_min":88,"x_max":1069,"o":"m 932 128 q 863 57 932 128 q 581 -14 794 -14 q 227 129 367 -14 q 88 483 88 272 q 225 835 88 694 q 578 976 363 976 q 931 835 793 976 q 1069 482 1069 694 q 932 128 1069 271 m 268 169 q 328 106 268 169 q 578 43 389 43 q 888 169 767 43 q 1010 483 1010 294 q 888 795 1010 669 q 578 921 767 921 q 268 796 389 921 q 147 483 147 671 q 268 169 147 294 m 590 206 q 392 285 472 206 q 311 483 311 365 q 392 678 311 599 q 592 758 474 758 q 796 671 717 758 l 722 596 q 592 651 671 651 q 474 604 521 651 q 428 483 428 557 q 474 361 428 408 q 592 314 521 314 q 722 369 674 314 l 796 294 q 590 206 718 206 z "},"ª":{"ha":492,"x_min":25,"x_max":442,"o":"m 221 556 q 81 615 138 556 q 25 764 25 675 q 81 913 25 853 q 221 972 138 972 q 343 919 297 972 l 343 964 l 442 964 l 442 564 l 343 564 l 343 608 q 221 556 297 556 m 159 681 q 175 664 159 681 q 239 647 190 647 q 317 680 288 647 q 347 765 347 713 q 317 849 347 817 q 239 882 286 882 q 159 849 190 882 q 128 765 128 815 q 159 681 128 714 z "},"«":{"ha":636,"x_min":51,"x_max":586,"o":"m 203 114 l 51 333 l 203 554 l 331 554 l 174 333 l 331 114 l 203 114 m 460 114 l 308 333 l 460 554 l 586 554 l 429 333 l 586 114 l 460 114 z "},"¬":{"ha":753,"x_min":82,"x_max":671,"o":"m 82 478 l 82 590 l 671 590 l 671 246 l 556 246 l 556 478 l 82 478 z "},"­":{"ha":640,"x_min":92,"x_max":549,"o":"m 92 294 l 92 413 l 549 413 l 549 294 l 92 294 z "},"®":{"ha":789,"x_min":96,"x_max":694,"o":"m 610 460 q 567 417 610 460 q 394 374 525 374 q 180 461 264 374 q 96 678 96 549 q 180 892 96 806 q 393 978 264 978 q 609 891 524 978 q 694 676 694 804 q 610 460 694 547 m 393 414 q 579 489 507 414 q 651 678 651 564 q 579 863 651 789 q 393 938 507 938 q 209 863 281 938 q 138 678 138 789 q 210 489 138 564 q 393 414 282 414 m 293 522 l 293 840 l 411 840 q 483 815 456 840 q 510 750 510 789 q 485 687 510 711 q 419 661 461 663 l 535 522 l 475 522 l 363 660 l 342 660 l 342 522 l 293 522 m 410 797 l 342 797 l 342 701 l 408 701 q 463 749 463 701 q 449 783 463 769 q 410 797 435 797 z "},"¯":{"ha":611,"x_min":56,"x_max":556,"o":"m 56 926 l 556 926 l 556 822 l 56 822 l 56 926 z "},"°":{"ha":547,"x_min":57,"x_max":490,"o":"m 429 610 q 399 579 429 610 q 274 549 368 549 q 118 610 179 549 q 57 763 57 671 q 118 916 57 854 q 274 978 179 978 q 429 916 368 978 q 490 763 490 854 q 429 610 490 671 m 195 681 q 211 664 195 681 q 274 647 226 647 q 352 681 321 647 q 383 763 383 714 q 353 845 383 813 q 274 878 322 878 q 195 845 226 878 q 164 763 164 813 q 195 681 164 714 z "},"±":{"ha":753,"x_min":82,"x_max":671,"o":"m 82 499 l 82 611 l 319 611 l 319 785 l 435 785 l 435 611 l 671 611 l 671 499 l 435 499 l 435 326 l 319 326 l 319 499 l 82 499 m 82 146 l 82 258 l 671 258 l 671 146 l 82 146 z "},"²":{"ha":467,"x_min":47,"x_max":410,"o":"m 50 475 l 50 538 l 242 731 q 288 813 288 776 q 269 858 288 840 q 219 876 250 876 q 122 810 167 876 l 47 876 q 228 972 108 972 q 353 931 307 972 q 399 817 399 889 q 319 663 399 738 l 224 568 l 410 568 l 410 475 l 50 475 z "},"³":{"ha":465,"x_min":42,"x_max":403,"o":"m 208 467 q 42 535 103 467 l 114 607 q 208 563 143 563 q 269 582 246 563 q 292 635 292 601 q 267 688 292 668 q 201 708 242 708 q 149 701 169 708 l 149 764 l 242 871 l 75 871 l 75 964 l 392 964 l 392 903 l 279 775 q 368 733 333 772 q 403 632 403 693 q 349 513 403 558 q 208 467 296 467 z "},"´":{"ha":390,"x_min":56,"x_max":335,"o":"m 113 758 l 56 815 l 236 1039 l 335 940 l 113 758 z "},"µ":{"ha":804,"x_min":136,"x_max":701,"o":"m 136 -260 l 136 660 l 261 660 l 261 275 q 305 150 261 193 q 418 107 349 107 q 532 150 488 107 q 576 276 576 193 l 576 660 l 701 660 l 701 261 q 628 64 701 142 q 439 -14 554 -14 q 261 58 325 -14 l 261 -260 l 136 -260 z "},"¶":{"ha":981,"x_min":78,"x_max":913,"o":"m 571 -139 l 461 -139 l 461 375 l 390 375 q 167 456 256 375 q 78 669 78 538 q 166 883 78 801 q 390 964 254 964 l 913 964 l 913 850 l 792 850 l 792 -139 l 682 -139 l 682 850 l 571 850 l 571 -139 m 397 489 l 461 489 l 461 850 l 397 850 q 263 801 315 850 q 210 669 210 751 q 263 538 210 588 q 397 489 315 489 z "},"·":{"ha":181,"x_min":0,"x_max":181,"o":"m 155 440 q 142 427 155 440 q 90 414 129 414 q 26 440 51 414 q 0 506 0 467 q 26 571 0 544 q 90 597 51 597 q 155 571 129 597 q 181 506 181 544 q 155 440 181 467 z "},"¸":{"ha":376,"x_min":17,"x_max":358,"o":"m 179 -290 q 17 -240 90 -290 l 74 -172 q 171 -208 110 -208 q 251 -164 251 -208 q 174 -117 251 -117 l 113 -117 l 156 18 l 250 18 l 229 -49 q 324 -90 289 -58 q 358 -167 358 -122 q 309 -256 358 -221 q 179 -290 260 -290 z "},"¹":{"ha":363,"x_min":43,"x_max":250,"o":"m 139 475 l 139 871 l 43 871 l 43 964 l 250 964 l 250 475 l 139 475 z "},"º":{"ha":478,"x_min":25,"x_max":453,"o":"m 391 615 q 360 584 391 615 q 239 554 329 554 q 87 615 149 554 q 25 764 25 675 q 86 912 25 851 q 239 972 147 972 q 391 913 329 972 q 453 764 453 853 q 391 615 453 675 m 158 680 q 174 664 158 680 q 239 647 190 647 q 319 680 288 647 q 351 764 351 713 q 319 847 351 814 q 239 879 288 879 q 158 847 190 879 q 126 764 126 814 q 158 680 126 713 z "},"»":{"ha":636,"x_min":50,"x_max":585,"o":"m 307 114 l 464 333 l 307 554 l 433 554 l 585 333 l 433 114 l 307 114 m 50 114 l 208 333 l 50 554 l 178 554 l 329 333 l 178 114 l 50 114 z "},"¼":{"ha":939,"x_min":47,"x_max":881,"o":"m 517 549 l 463 600 l 749 989 l 856 885 l 517 549 m 203 475 l 203 871 l 108 871 l 108 964 l 315 964 l 315 475 l 203 475 m 485 90 l 485 151 l 642 478 l 763 478 l 619 185 l 721 185 l 721 285 l 832 285 l 832 185 l 881 185 l 881 90 l 832 90 l 832 -11 l 721 -11 l 721 90 l 485 90 m 386 419 l 440 369 l 154 -19 l 47 83 l 386 419 z "},"½":{"ha":931,"x_min":47,"x_max":856,"o":"m 517 549 l 463 600 l 749 989 l 856 885 l 517 549 m 203 475 l 203 871 l 108 871 l 108 964 l 315 964 l 315 475 l 203 475 m 496 -11 l 496 51 l 688 244 q 733 326 733 290 q 714 372 733 354 q 664 390 694 390 q 568 324 613 390 l 493 390 q 674 486 554 486 q 798 444 751 486 q 844 331 844 403 q 765 176 844 254 l 668 82 l 854 82 l 854 -11 l 496 -11 m 386 419 l 440 369 l 154 -19 l 47 83 l 386 419 z "},"¾":{"ha":931,"x_min":61,"x_max":879,"o":"m 561 544 l 507 589 l 774 989 l 879 885 l 561 544 m 240 467 q 72 535 136 467 l 144 607 q 239 563 174 563 q 300 582 276 563 q 324 635 324 601 q 299 688 324 668 q 232 708 274 708 q 179 701 203 708 l 179 764 l 274 871 l 106 871 l 106 964 l 424 964 l 424 903 l 310 775 q 399 733 364 772 q 435 632 435 693 q 381 513 435 558 q 240 467 328 467 m 451 90 l 451 151 l 608 478 l 729 478 l 585 185 l 686 185 l 686 285 l 797 285 l 797 185 l 846 185 l 846 90 l 797 90 l 797 -11 l 686 -11 l 686 90 l 451 90 m 379 425 l 433 379 l 168 -19 l 61 83 l 379 425 z "},"¿":{"ha":679,"x_min":71,"x_max":643,"o":"m 411 517 q 399 505 411 517 q 347 492 386 492 q 283 517 308 492 q 257 583 257 543 q 283 648 257 622 q 347 674 308 674 q 411 648 386 674 q 436 583 436 622 q 411 517 436 543 m 353 -290 q 150 -215 229 -290 q 71 -21 71 -139 q 128 147 71 78 q 283 246 185 217 l 292 354 l 400 354 l 400 146 l 364 146 q 245 101 290 144 q 200 -12 200 58 q 244 -124 200 -81 q 358 -168 288 -168 q 551 -40 490 -168 l 643 -117 q 526 -244 601 -199 q 353 -290 451 -290 z "},"À":{"ha":967,"x_min":43,"x_max":925,"o":"m 539 1053 l 317 1235 l 414 1332 l 596 1108 l 539 1053 m 43 0 l 438 964 l 532 964 l 925 0 l 783 0 l 696 218 l 268 218 l 182 0 l 43 0 m 314 332 l 651 332 l 483 754 l 314 332 z "},"Á":{"ha":967,"x_min":43,"x_max":925,"o":"m 400 1063 l 343 1119 l 525 1343 l 622 1244 l 400 1063 m 43 0 l 438 964 l 532 964 l 925 0 l 783 0 l 696 218 l 268 218 l 182 0 l 43 0 m 314 332 l 651 332 l 483 754 l 314 332 z "},"Â":{"ha":967,"x_min":43,"x_max":925,"o":"m 301 1061 l 246 1117 l 435 1332 l 532 1332 l 721 1117 l 664 1061 l 483 1211 l 301 1061 m 43 0 l 438 964 l 532 964 l 925 0 l 783 0 l 696 218 l 268 218 l 182 0 l 43 0 m 314 332 l 651 332 l 483 754 l 314 332 z "},"Ã":{"ha":967,"x_min":43,"x_max":925,"o":"m 585 1065 q 477 1097 536 1065 q 388 1129 418 1129 q 290 1079 328 1129 l 222 1146 q 385 1238 300 1238 q 493 1206 433 1238 q 582 1174 553 1174 q 676 1225 638 1174 l 744 1158 q 585 1065 665 1065 m 43 0 l 438 964 l 532 964 l 925 0 l 783 0 l 696 218 l 268 218 l 182 0 l 43 0 m 314 332 l 651 332 l 483 754 l 314 332 z "},"Ä":{"ha":967,"x_min":43,"x_max":925,"o":"m 401 1098 q 390 1086 401 1098 q 344 1075 379 1075 q 288 1098 310 1075 q 265 1156 265 1121 q 288 1212 265 1189 q 344 1235 310 1235 q 401 1212 379 1235 q 424 1156 424 1189 q 401 1098 424 1121 m 679 1098 q 668 1086 679 1098 q 622 1075 657 1075 q 565 1098 588 1075 q 543 1156 543 1121 q 565 1212 543 1189 q 622 1235 588 1235 q 679 1212 657 1235 q 701 1156 701 1189 q 679 1098 701 1121 m 43 0 l 438 964 l 532 964 l 925 0 l 783 0 l 696 218 l 268 218 l 182 0 l 43 0 m 314 332 l 651 332 l 483 754 l 314 332 z "},"Å":{"ha":967,"x_min":43,"x_max":925,"o":"m 43 0 l 422 925 q 345 984 374 943 q 317 1079 317 1025 q 364 1197 317 1149 q 485 1244 411 1244 q 602 1197 556 1244 q 649 1079 649 1149 q 621 985 649 1026 q 547 926 593 944 l 925 0 l 783 0 l 696 218 l 268 218 l 182 0 l 43 0 m 485 1006 q 535 1027 514 1006 q 556 1079 556 1049 q 535 1131 556 1110 q 485 1153 514 1153 q 431 1132 451 1153 q 411 1079 411 1111 q 431 1026 411 1047 q 485 1006 451 1006 m 314 332 l 651 332 l 483 754 l 314 332 z "},"Æ":{"ha":1351,"x_min":43,"x_max":1289,"o":"m 43 0 l 438 964 l 1281 964 l 1281 844 l 818 844 l 818 550 l 1243 550 l 1243 436 l 818 436 l 818 119 l 1289 119 l 1289 0 l 688 0 l 688 340 l 317 340 l 182 0 l 43 0 m 519 844 l 363 454 l 688 454 l 688 844 l 519 844 z "},"Ç":{"ha":956,"x_min":65,"x_max":910,"o":"m 503 -290 q 340 -240 414 -290 l 396 -172 q 494 -208 435 -208 q 574 -164 574 -208 q 496 -117 574 -117 l 435 -117 l 469 -7 q 178 158 292 21 q 65 482 65 294 q 203 834 65 690 q 550 978 342 978 q 903 833 758 978 l 813 743 q 550 853 711 853 q 299 748 397 853 q 200 482 200 643 q 299 215 200 319 q 550 111 397 111 q 819 222 718 111 l 910 133 q 563 -14 771 -10 l 551 -49 q 646 -90 611 -58 q 681 -167 681 -122 q 631 -256 681 -221 q 503 -290 582 -290 z "},"È":{"ha":819,"x_min":114,"x_max":756,"o":"m 493 1053 l 271 1235 l 369 1332 l 550 1108 l 493 1053 m 114 0 l 114 964 l 749 964 l 749 844 l 244 844 l 244 550 l 710 550 l 710 436 l 244 436 l 244 119 l 756 119 l 756 0 l 114 0 z "},"É":{"ha":819,"x_min":114,"x_max":756,"o":"m 356 1063 l 299 1119 l 479 1343 l 578 1244 l 356 1063 m 114 0 l 114 964 l 749 964 l 749 844 l 244 844 l 244 550 l 710 550 l 710 436 l 244 436 l 244 119 l 756 119 l 756 0 l 114 0 z "},"Ê":{"ha":819,"x_min":114,"x_max":756,"o":"m 257 1061 l 200 1117 l 389 1332 l 486 1332 l 675 1117 l 619 1061 l 439 1211 l 257 1061 m 114 0 l 114 964 l 749 964 l 749 844 l 244 844 l 244 550 l 710 550 l 710 436 l 244 436 l 244 119 l 756 119 l 756 0 l 114 0 z "},"Ë":{"ha":819,"x_min":114,"x_max":756,"o":"m 356 1098 q 344 1086 356 1098 q 299 1075 333 1075 q 242 1098 264 1075 q 221 1156 221 1121 q 243 1212 221 1189 q 299 1235 265 1235 q 356 1212 333 1235 q 378 1156 378 1189 q 356 1098 378 1121 m 633 1098 q 622 1086 633 1098 q 576 1075 611 1075 q 520 1098 542 1075 q 499 1156 499 1121 q 521 1212 499 1189 q 576 1235 543 1235 q 633 1212 611 1235 q 656 1156 656 1189 q 633 1098 656 1121 m 114 0 l 114 964 l 749 964 l 749 844 l 244 844 l 244 550 l 710 550 l 710 436 l 244 436 l 244 119 l 756 119 l 756 0 l 114 0 z "},"Ì":{"ha":358,"x_min":13,"x_max":292,"o":"m 235 1053 l 13 1235 l 111 1332 l 292 1108 l 235 1053 m 114 0 l 114 964 l 244 964 l 244 0 l 114 0 z "},"Í":{"ha":358,"x_min":40,"x_max":318,"o":"m 96 1063 l 40 1119 l 221 1343 l 318 1244 l 96 1063 m 114 0 l 114 964 l 244 964 l 244 0 l 114 0 z "},"Î":{"ha":358,"x_min":-58,"x_max":417,"o":"m -1 1061 l -58 1117 l 131 1332 l 228 1332 l 417 1117 l 360 1061 l 181 1211 l -1 1061 m 114 0 l 114 964 l 244 964 l 244 0 l 114 0 z "},"Ï":{"ha":358,"x_min":-37,"x_max":397,"o":"m 97 1098 q 86 1086 97 1098 q 40 1075 75 1075 q -16 1098 6 1075 q -37 1156 -37 1121 q -15 1212 -37 1189 q 40 1235 7 1235 q 97 1212 75 1235 q 119 1156 119 1189 q 97 1098 119 1121 m 375 1098 q 364 1086 375 1098 q 318 1075 353 1075 q 262 1098 283 1075 q 240 1156 240 1121 q 263 1212 240 1189 q 318 1235 285 1235 q 375 1212 353 1235 q 397 1156 397 1189 q 375 1098 397 1121 m 114 0 l 114 964 l 244 964 l 244 0 l 114 0 z "},"Ð":{"ha":1049,"x_min":31,"x_max":982,"o":"m 135 0 l 135 433 l 31 433 l 31 543 l 135 543 l 135 964 l 492 964 q 842 826 703 964 q 982 482 982 689 q 842 138 982 276 q 494 0 703 0 l 135 0 m 547 433 l 265 433 l 265 119 l 489 119 q 747 221 647 119 q 847 483 847 322 q 747 744 847 643 q 489 844 647 844 l 265 844 l 265 543 l 547 543 l 547 433 z "},"Ñ":{"ha":986,"x_min":114,"x_max":872,"o":"m 678 1088 q 660 1077 678 1088 q 594 1065 642 1065 q 488 1097 547 1065 q 397 1129 429 1129 q 301 1079 336 1129 l 233 1146 q 309 1215 272 1192 q 396 1238 346 1238 q 504 1206 444 1238 q 593 1174 564 1174 q 686 1225 650 1174 l 754 1158 q 678 1088 714 1111 m 114 0 l 114 964 l 206 964 l 742 249 l 742 964 l 872 964 l 872 0 l 781 0 l 244 715 l 244 0 l 114 0 z "},"Ò":{"ha":1103,"x_min":65,"x_max":1038,"o":"m 607 1053 l 385 1235 l 482 1332 l 664 1108 l 607 1053 m 897 130 q 827 58 897 130 q 553 -14 757 -14 q 207 131 349 -14 q 65 483 65 276 q 206 834 65 690 q 550 978 346 978 q 897 834 756 978 q 1038 482 1038 690 q 897 130 1038 274 m 550 111 q 803 216 704 111 q 903 483 903 321 q 803 749 903 644 q 550 853 704 853 q 299 749 397 853 q 200 483 200 644 q 299 216 200 321 q 550 111 397 111 z "},"Ó":{"ha":1103,"x_min":65,"x_max":1038,"o":"m 468 1063 l 411 1119 l 593 1343 l 690 1244 l 468 1063 m 897 130 q 827 58 897 130 q 553 -14 757 -14 q 207 131 349 -14 q 65 483 65 276 q 206 834 65 690 q 550 978 346 978 q 897 834 756 978 q 1038 482 1038 690 q 897 130 1038 274 m 550 111 q 803 216 704 111 q 903 483 903 321 q 803 749 903 644 q 550 853 704 853 q 299 749 397 853 q 200 483 200 644 q 299 216 200 321 q 550 111 397 111 z "},"Ô":{"ha":1103,"x_min":65,"x_max":1038,"o":"m 369 1061 l 314 1117 l 503 1332 l 600 1332 l 789 1117 l 732 1061 l 551 1211 l 369 1061 m 897 130 q 827 58 897 130 q 553 -14 757 -14 q 207 131 349 -14 q 65 483 65 276 q 206 834 65 690 q 550 978 346 978 q 897 834 756 978 q 1038 482 1038 690 q 897 130 1038 274 m 550 111 q 803 216 704 111 q 903 483 903 321 q 803 749 903 644 q 550 853 704 853 q 299 749 397 853 q 200 483 200 644 q 299 216 200 321 q 550 111 397 111 z "},"Õ":{"ha":1103,"x_min":65,"x_max":1038,"o":"m 653 1065 q 545 1097 604 1065 q 456 1129 486 1129 q 358 1079 396 1129 l 290 1146 q 453 1238 368 1238 q 561 1206 501 1238 q 650 1174 621 1174 q 744 1225 706 1174 l 813 1158 q 653 1065 733 1065 m 897 130 q 827 58 897 130 q 553 -14 757 -14 q 207 131 349 -14 q 65 483 65 276 q 206 834 65 690 q 550 978 346 978 q 897 834 756 978 q 1038 482 1038 690 q 897 130 1038 274 m 550 111 q 803 216 704 111 q 903 483 903 321 q 803 749 903 644 q 550 853 704 853 q 299 749 397 853 q 200 483 200 644 q 299 216 200 321 q 550 111 397 111 z "},"Ö":{"ha":1103,"x_min":65,"x_max":1038,"o":"m 469 1098 q 458 1086 469 1098 q 413 1075 447 1075 q 356 1098 378 1075 q 333 1156 333 1121 q 356 1212 333 1189 q 413 1235 378 1235 q 469 1212 447 1235 q 492 1156 492 1189 q 469 1098 492 1121 m 747 1098 q 736 1086 747 1098 q 690 1075 725 1075 q 633 1098 656 1075 q 611 1156 611 1121 q 633 1212 611 1189 q 690 1235 656 1235 q 747 1212 725 1235 q 769 1156 769 1189 q 747 1098 769 1121 m 897 130 q 827 58 897 130 q 553 -14 757 -14 q 207 131 349 -14 q 65 483 65 276 q 206 834 65 690 q 550 978 346 978 q 897 834 756 978 q 1038 482 1038 690 q 897 130 1038 274 m 550 111 q 803 216 704 111 q 903 483 903 321 q 803 749 903 644 q 550 853 704 853 q 299 749 397 853 q 200 483 200 644 q 299 216 200 321 q 550 111 397 111 z "},"×":{"ha":731,"x_min":78,"x_max":654,"o":"m 160 176 l 78 258 l 283 464 l 86 661 l 168 743 l 365 546 l 572 753 l 654 671 l 447 464 l 643 268 l 561 186 l 365 382 l 160 176 z "},"Ø":{"ha":1103,"x_min":64,"x_max":1036,"o":"m 553 -14 q 249 93 381 -14 l 156 0 l 69 86 l 164 181 q 64 483 64 314 q 204 834 64 690 q 550 978 344 978 q 854 871 724 978 l 947 964 l 1033 878 l 939 783 q 1036 482 1036 651 q 896 131 1036 275 q 553 -14 756 -14 m 199 483 q 256 272 199 364 l 765 782 q 550 853 672 853 q 297 749 396 853 q 199 483 199 644 m 550 111 q 803 216 704 111 q 901 483 901 321 q 846 692 901 601 l 336 181 q 550 111 428 111 z "},"Ù":{"ha":949,"x_min":103,"x_max":847,"o":"m 529 1053 l 307 1235 l 406 1332 l 586 1108 l 529 1053 m 475 -14 q 209 92 315 -14 q 103 357 103 197 l 103 964 l 233 964 l 233 360 q 301 179 233 247 q 475 111 369 111 q 648 179 581 111 q 715 358 715 247 l 715 964 l 847 964 l 847 356 q 742 91 847 196 q 475 -14 636 -14 z "},"Ú":{"ha":949,"x_min":103,"x_max":847,"o":"m 392 1063 l 335 1119 l 515 1343 l 614 1244 l 392 1063 m 475 -14 q 209 92 315 -14 q 103 357 103 197 l 103 964 l 233 964 l 233 360 q 301 179 233 247 q 475 111 369 111 q 648 179 581 111 q 715 358 715 247 l 715 964 l 847 964 l 847 356 q 742 91 847 196 q 475 -14 636 -14 z "},"Û":{"ha":949,"x_min":103,"x_max":847,"o":"m 293 1061 l 236 1117 l 425 1332 l 522 1332 l 711 1117 l 656 1061 l 475 1211 l 293 1061 m 475 -14 q 209 92 315 -14 q 103 357 103 197 l 103 964 l 233 964 l 233 360 q 301 179 233 247 q 475 111 369 111 q 648 179 581 111 q 715 358 715 247 l 715 964 l 847 964 l 847 356 q 742 91 847 196 q 475 -14 636 -14 z "},"Ü":{"ha":949,"x_min":103,"x_max":847,"o":"m 392 1098 q 381 1086 392 1098 q 335 1075 369 1075 q 278 1098 300 1075 q 257 1156 257 1121 q 279 1212 257 1189 q 335 1235 301 1235 q 392 1212 369 1235 q 414 1156 414 1189 q 392 1098 414 1121 m 669 1098 q 658 1086 669 1098 q 613 1075 647 1075 q 556 1098 578 1075 q 535 1156 535 1121 q 557 1212 535 1189 q 613 1235 579 1235 q 669 1212 647 1235 q 692 1156 692 1189 q 669 1098 692 1121 m 475 -14 q 209 92 315 -14 q 103 357 103 197 l 103 964 l 233 964 l 233 360 q 301 179 233 247 q 475 111 369 111 q 648 179 581 111 q 715 358 715 247 l 715 964 l 847 964 l 847 356 q 742 91 847 196 q 475 -14 636 -14 z "},"Ý":{"ha":924,"x_min":40,"x_max":885,"o":"m 379 1063 l 322 1119 l 503 1343 l 601 1244 l 379 1063 m 397 0 l 397 424 l 40 964 l 192 964 l 464 547 l 736 964 l 885 964 l 528 429 l 528 0 l 397 0 z "},"Þ":{"ha":842,"x_min":114,"x_max":783,"o":"m 114 0 l 114 964 l 244 964 l 244 788 l 472 788 q 695 706 607 788 q 783 493 783 625 q 695 280 783 361 q 472 199 607 199 l 244 199 l 244 0 l 114 0 m 464 674 l 244 674 l 244 314 l 464 314 q 599 363 547 314 q 651 493 651 411 q 599 624 651 575 q 464 674 547 674 z "},"ß":{"ha":796,"x_min":92,"x_max":750,"o":"m 449 -14 q 261 53 331 -14 l 336 147 q 453 104 379 104 q 567 152 522 104 q 613 278 613 200 q 560 406 613 354 q 431 458 508 458 l 347 458 l 347 568 l 396 568 q 503 614 463 568 q 543 732 543 660 q 499 843 543 799 q 385 888 456 888 q 263 843 310 888 q 217 728 217 799 l 217 0 l 92 0 l 92 728 q 174 926 92 846 q 385 1006 256 1006 q 589 929 511 1006 q 667 740 667 853 q 564 542 667 608 q 700 443 650 513 q 750 275 750 374 q 666 68 750 150 q 449 -14 582 -14 z "},"à":{"ha":808,"x_min":50,"x_max":718,"o":"m 446 749 l 224 931 l 321 1028 l 503 804 l 446 749 m 372 -14 q 143 85 236 -14 q 50 329 50 185 q 143 574 50 474 q 372 674 236 674 q 592 569 517 674 l 592 660 l 718 660 l 718 0 l 592 0 l 592 89 q 372 -14 515 -14 m 240 168 q 270 136 240 168 q 393 104 300 104 q 543 167 486 104 q 600 329 600 229 q 542 493 600 431 q 392 556 485 556 q 239 492 299 556 q 179 331 179 429 q 240 168 179 232 z "},"á":{"ha":808,"x_min":50,"x_max":718,"o":"m 307 758 l 250 815 l 432 1039 l 529 940 l 307 758 m 372 -14 q 143 85 236 -14 q 50 329 50 185 q 143 574 50 474 q 372 674 236 674 q 592 569 517 674 l 592 660 l 718 660 l 718 0 l 592 0 l 592 89 q 372 -14 515 -14 m 240 168 q 270 136 240 168 q 393 104 300 104 q 543 167 486 104 q 600 329 600 229 q 542 493 600 431 q 392 556 485 556 q 239 492 299 556 q 179 331 179 429 q 240 168 179 232 z "},"â":{"ha":808,"x_min":50,"x_max":718,"o":"m 208 757 l 153 813 l 342 1028 l 439 1028 l 628 813 l 571 757 l 390 907 l 208 757 m 372 -14 q 143 85 236 -14 q 50 329 50 185 q 143 574 50 474 q 372 674 236 674 q 592 569 517 674 l 592 660 l 718 660 l 718 0 l 592 0 l 592 89 q 372 -14 515 -14 m 240 168 q 270 136 240 168 q 393 104 300 104 q 543 167 486 104 q 600 329 600 229 q 542 493 600 431 q 392 556 485 556 q 239 492 299 556 q 179 331 179 429 q 240 168 179 232 z "},"ã":{"ha":808,"x_min":50,"x_max":718,"o":"m 492 761 q 384 793 443 761 q 294 825 325 825 q 197 775 235 825 l 129 842 q 292 933 207 933 q 400 901 340 933 q 489 869 460 869 q 583 921 544 869 l 651 854 q 492 761 572 761 m 372 -14 q 143 85 236 -14 q 50 329 50 185 q 143 574 50 474 q 372 674 236 674 q 592 569 517 674 l 592 660 l 718 660 l 718 0 l 592 0 l 592 89 q 372 -14 515 -14 m 240 168 q 270 136 240 168 q 393 104 300 104 q 543 167 486 104 q 600 329 600 229 q 542 493 600 431 q 392 556 485 556 q 239 492 299 556 q 179 331 179 429 q 240 168 179 232 z "},"ä":{"ha":808,"x_min":50,"x_max":718,"o":"m 308 794 q 297 782 308 794 q 251 771 286 771 q 194 794 217 771 q 172 851 172 817 q 194 908 172 885 q 251 931 217 931 q 308 908 286 931 q 331 851 331 885 q 308 794 331 817 m 586 794 q 575 782 586 794 q 529 771 564 771 q 472 794 494 771 q 450 851 450 817 q 472 908 450 885 q 529 931 494 931 q 586 908 564 931 q 608 851 608 885 q 586 794 608 817 m 372 -14 q 143 85 236 -14 q 50 329 50 185 q 143 574 50 474 q 372 674 236 674 q 592 569 517 674 l 592 660 l 718 660 l 718 0 l 592 0 l 592 89 q 372 -14 515 -14 m 240 168 q 270 136 240 168 q 393 104 300 104 q 543 167 486 104 q 600 329 600 229 q 542 493 600 431 q 392 556 485 556 q 239 492 299 556 q 179 331 179 429 q 240 168 179 232 z "},"å":{"ha":808,"x_min":50,"x_max":718,"o":"m 392 739 q 271 786 318 739 q 224 904 224 833 q 271 1021 224 974 q 392 1068 318 1068 q 509 1021 463 1068 q 556 904 556 974 q 509 786 556 833 q 392 739 463 739 m 392 829 q 442 851 421 829 q 463 904 463 872 q 442 956 463 935 q 392 978 421 978 q 338 957 358 978 q 318 904 318 936 q 338 850 318 871 q 392 829 358 829 m 372 -14 q 143 85 236 -14 q 50 329 50 185 q 143 574 50 474 q 372 674 236 674 q 592 569 517 674 l 592 660 l 718 660 l 718 0 l 592 0 l 592 89 q 372 -14 515 -14 m 240 168 q 270 136 240 168 q 393 104 300 104 q 543 167 486 104 q 600 329 600 229 q 542 493 600 431 q 392 556 485 556 q 239 492 299 556 q 179 331 179 429 q 240 168 179 232 z "},"æ":{"ha":1294,"x_min":50,"x_max":1250,"o":"m 372 -14 q 143 85 236 -14 q 50 329 50 185 q 143 574 50 474 q 372 674 236 674 q 592 569 517 674 l 592 660 l 717 660 l 717 568 q 944 674 800 674 q 1163 582 1076 674 q 1250 350 1250 490 q 1243 283 1250 317 l 726 283 q 801 152 742 200 q 947 104 860 104 q 1129 182 1065 104 l 1210 100 q 957 -14 1111 -14 q 717 94 803 -14 l 717 0 l 592 0 l 592 89 q 372 -14 515 -14 m 936 558 q 797 513 853 558 q 726 388 742 467 l 1128 388 q 1067 513 1117 468 q 936 558 1017 558 m 240 168 q 270 136 240 168 q 393 104 300 104 q 543 167 486 104 q 600 329 600 229 q 542 493 600 431 q 392 556 485 556 q 239 492 299 556 q 179 331 179 429 q 240 168 179 232 z "},"ç":{"ha":679,"x_min":49,"x_max":647,"o":"m 350 -290 q 188 -240 261 -290 l 243 -172 q 342 -208 282 -208 q 421 -164 421 -208 q 343 -117 421 -117 l 282 -117 l 317 -6 q 124 113 199 19 q 49 331 49 206 q 148 574 49 475 q 393 674 247 674 q 647 563 549 674 l 564 479 q 393 553 501 553 q 238 490 299 553 q 178 331 178 428 q 238 170 178 233 q 393 107 299 107 q 565 181 503 107 l 647 97 q 410 -14 556 -7 l 399 -49 q 493 -90 458 -58 q 528 -167 528 -122 q 478 -256 528 -221 q 350 -290 429 -290 z "},"è":{"ha":744,"x_min":49,"x_max":700,"o":"m 443 749 l 221 931 l 318 1028 l 500 804 l 443 749 m 397 -14 q 149 85 249 -14 q 49 331 49 183 q 147 574 49 475 q 389 674 246 674 q 612 582 524 674 q 700 350 700 490 q 693 283 700 317 l 176 283 q 251 152 192 200 q 397 104 310 104 q 579 182 515 104 l 660 100 q 397 -14 561 -14 m 386 558 q 247 513 303 558 q 176 388 192 467 l 578 388 q 517 513 567 468 q 386 558 467 558 z "},"é":{"ha":744,"x_min":49,"x_max":700,"o":"m 304 758 l 247 815 l 429 1039 l 526 940 l 304 758 m 397 -14 q 149 85 249 -14 q 49 331 49 183 q 147 574 49 475 q 389 674 246 674 q 612 582 524 674 q 700 350 700 490 q 693 283 700 317 l 176 283 q 251 152 192 200 q 397 104 310 104 q 579 182 515 104 l 660 100 q 397 -14 561 -14 m 386 558 q 247 513 303 558 q 176 388 192 467 l 578 388 q 517 513 567 468 q 386 558 467 558 z "},"ê":{"ha":744,"x_min":49,"x_max":700,"o":"m 206 757 l 150 813 l 339 1028 l 436 1028 l 625 813 l 568 757 l 388 907 l 206 757 m 397 -14 q 149 85 249 -14 q 49 331 49 183 q 147 574 49 475 q 389 674 246 674 q 612 582 524 674 q 700 350 700 490 q 693 283 700 317 l 176 283 q 251 152 192 200 q 397 104 310 104 q 579 182 515 104 l 660 100 q 397 -14 561 -14 m 386 558 q 247 513 303 558 q 176 388 192 467 l 578 388 q 517 513 567 468 q 386 558 467 558 z "},"ë":{"ha":744,"x_min":49,"x_max":700,"o":"m 306 794 q 294 782 306 794 q 249 771 283 771 q 192 794 214 771 q 169 851 169 817 q 192 908 169 885 q 249 931 214 931 q 306 908 283 931 q 328 851 328 885 q 306 794 328 817 m 583 794 q 572 782 583 794 q 526 771 561 771 q 469 794 492 771 q 447 851 447 817 q 469 908 447 885 q 526 931 492 931 q 583 908 561 931 q 606 851 606 885 q 583 794 606 817 m 397 -14 q 149 85 249 -14 q 49 331 49 183 q 147 574 49 475 q 389 674 246 674 q 612 582 524 674 q 700 350 700 490 q 693 283 700 317 l 176 283 q 251 152 192 200 q 397 104 310 104 q 579 182 515 104 l 660 100 q 397 -14 561 -14 m 386 558 q 247 513 303 558 q 176 388 192 467 l 578 388 q 517 513 567 468 q 386 558 467 558 z "},"ì":{"ha":308,"x_min":-12,"x_max":267,"o":"m 210 749 l -12 931 l 85 1028 l 267 804 l 210 749 m 92 0 l 92 660 l 217 660 l 217 0 l 92 0 z "},"í":{"ha":308,"x_min":14,"x_max":293,"o":"m 71 758 l 14 815 l 196 1039 l 293 940 l 71 758 m 92 0 l 92 660 l 217 660 l 217 0 l 92 0 z "},"î":{"ha":308,"x_min":-83,"x_max":392,"o":"m -28 757 l -83 813 l 106 1028 l 203 1028 l 392 813 l 335 757 l 154 907 l -28 757 m 92 0 l 92 660 l 217 660 l 217 0 l 92 0 z "},"ï":{"ha":308,"x_min":-64,"x_max":372,"o":"m 72 794 q 61 782 72 794 q 15 771 50 771 q -42 794 -19 771 q -64 851 -64 817 q -42 908 -64 885 q 15 931 -19 931 q 72 908 50 931 q 94 851 94 885 q 72 794 94 817 m 350 794 q 339 782 350 794 q 293 771 328 771 q 236 794 258 771 q 214 851 214 817 q 236 908 214 885 q 293 931 258 931 q 350 908 328 931 q 372 851 372 885 q 350 794 372 817 m 92 0 l 92 660 l 217 660 l 217 0 l 92 0 z "},"ð":{"ha":783,"x_min":56,"x_max":729,"o":"m 393 -14 q 154 84 253 -14 q 56 321 56 182 q 144 546 56 457 q 363 635 233 635 q 457 618 419 635 l 353 761 l 158 689 l 122 779 l 293 843 l 204 964 l 357 964 l 413 886 l 585 950 l 619 860 l 471 804 l 640 571 q 729 317 729 443 q 632 82 729 178 q 393 -14 535 -14 m 246 169 q 276 139 246 169 q 393 108 306 108 q 539 169 481 108 q 597 321 597 231 q 539 472 597 411 q 393 532 481 532 q 247 471 307 532 q 186 321 186 410 q 246 169 186 231 z "},"ñ":{"ha":761,"x_min":92,"x_max":683,"o":"m 482 761 q 374 793 433 761 q 285 825 315 825 q 189 775 225 825 l 121 842 q 282 933 199 933 q 390 901 331 933 q 479 869 450 869 q 574 921 538 869 l 642 854 q 482 761 563 761 m 92 0 l 92 660 l 217 660 l 217 574 q 425 674 292 674 q 610 594 536 674 q 683 410 683 515 l 683 0 l 558 0 l 558 385 q 511 509 558 461 q 389 557 464 557 q 265 508 314 557 q 217 385 217 460 l 217 0 l 92 0 z "},"ò":{"ha":786,"x_min":49,"x_max":738,"o":"m 449 749 l 226 931 l 325 1028 l 506 804 l 449 749 m 638 86 q 588 36 638 86 q 393 -14 538 -14 q 149 87 249 -14 q 49 332 49 188 q 148 575 49 476 q 393 674 247 674 q 638 574 538 674 q 738 332 738 475 q 638 86 738 186 m 239 170 q 269 139 239 170 q 393 107 300 107 q 547 170 486 107 q 608 332 608 233 q 547 490 608 428 q 393 553 486 553 q 239 490 300 553 q 178 332 178 428 q 239 170 178 233 z "},"ó":{"ha":786,"x_min":49,"x_max":738,"o":"m 310 758 l 254 815 l 435 1039 l 532 940 l 310 758 m 638 86 q 588 36 638 86 q 393 -14 538 -14 q 149 87 249 -14 q 49 332 49 188 q 148 575 49 476 q 393 674 247 674 q 638 574 538 674 q 738 332 738 475 q 638 86 738 186 m 239 170 q 269 139 239 170 q 393 107 300 107 q 547 170 486 107 q 608 332 608 233 q 547 490 608 428 q 393 553 486 553 q 239 490 300 553 q 178 332 178 428 q 239 170 178 233 z "},"ô":{"ha":786,"x_min":49,"x_max":738,"o":"m 213 757 l 156 813 l 344 1028 l 442 1028 l 631 813 l 574 757 l 394 907 l 213 757 m 638 86 q 588 36 638 86 q 393 -14 538 -14 q 149 87 249 -14 q 49 332 49 188 q 148 575 49 476 q 393 674 247 674 q 638 574 538 674 q 738 332 738 475 q 638 86 738 186 m 239 170 q 269 139 239 170 q 393 107 300 107 q 547 170 486 107 q 608 332 608 233 q 547 490 608 428 q 393 553 486 553 q 239 490 300 553 q 178 332 178 428 q 239 170 178 233 z "},"õ":{"ha":786,"x_min":49,"x_max":738,"o":"m 494 761 q 388 793 447 761 q 297 825 328 825 q 201 775 236 825 l 133 842 q 294 933 211 933 q 404 901 344 933 q 492 869 464 869 q 586 921 550 869 l 654 854 q 494 761 575 761 m 638 86 q 588 36 638 86 q 393 -14 538 -14 q 149 87 249 -14 q 49 332 49 188 q 148 575 49 476 q 393 674 247 674 q 638 574 538 674 q 738 332 738 475 q 638 86 738 186 m 239 170 q 269 139 239 170 q 393 107 300 107 q 547 170 486 107 q 608 332 608 233 q 547 490 608 428 q 393 553 486 553 q 239 490 300 553 q 178 332 178 428 q 239 170 178 233 z "},"ö":{"ha":786,"x_min":49,"x_max":738,"o":"m 311 794 q 300 782 311 794 q 254 771 289 771 q 198 794 219 771 q 176 851 176 817 q 199 908 176 885 q 254 931 221 931 q 311 908 289 931 q 333 851 333 885 q 311 794 333 817 m 589 794 q 578 782 589 794 q 532 771 567 771 q 476 794 497 771 q 454 851 454 817 q 476 908 454 885 q 532 931 499 931 q 589 908 567 931 q 611 851 611 885 q 589 794 611 817 m 638 86 q 588 36 638 86 q 393 -14 538 -14 q 149 87 249 -14 q 49 332 49 188 q 148 575 49 476 q 393 674 247 674 q 638 574 538 674 q 738 332 738 475 q 638 86 738 186 m 239 170 q 269 139 239 170 q 393 107 300 107 q 547 170 486 107 q 608 332 608 233 q 547 490 608 428 q 393 553 486 553 q 239 490 300 553 q 178 332 178 428 q 239 170 178 233 z "},"÷":{"ha":753,"x_min":82,"x_max":671,"o":"m 441 628 q 428 615 441 628 q 376 601 415 601 q 313 628 338 601 q 288 693 288 654 q 313 758 288 732 q 376 785 338 785 q 441 758 415 785 q 467 693 467 732 q 441 628 467 654 m 82 408 l 82 521 l 671 521 l 671 408 l 82 408 m 441 172 q 428 159 441 172 q 376 146 415 146 q 313 172 338 146 q 288 238 288 199 q 313 302 288 276 q 376 328 338 328 q 441 302 415 328 q 467 238 467 276 q 441 172 467 199 z "},"ø":{"ha":786,"x_min":29,"x_max":758,"o":"m 111 -35 l 29 47 l 111 131 q 49 332 49 219 q 148 575 49 476 q 393 674 247 674 q 593 611 504 674 l 676 694 l 758 613 l 675 529 q 738 332 738 440 q 638 86 738 186 q 392 -14 538 -14 q 193 49 282 -14 l 111 -35 m 178 332 q 203 221 178 269 l 506 524 q 393 553 456 553 q 239 490 300 553 q 178 332 178 428 m 393 107 q 547 170 486 107 q 608 332 608 233 q 583 439 608 392 l 282 136 q 393 107 328 107 z "},"ù":{"ha":717,"x_min":75,"x_max":640,"o":"m 414 749 l 192 931 l 290 1028 l 471 804 l 414 749 m 562 67 q 523 26 562 67 q 358 -14 483 -14 q 154 67 233 -14 q 75 276 75 149 l 75 660 l 200 660 l 200 282 q 242 153 200 200 q 358 107 285 107 q 474 153 432 107 q 515 282 515 200 l 515 660 l 640 660 l 640 276 q 562 67 640 147 z "},"ú":{"ha":717,"x_min":75,"x_max":640,"o":"m 275 758 l 219 815 l 400 1039 l 497 940 l 275 758 m 562 67 q 523 26 562 67 q 358 -14 483 -14 q 154 67 233 -14 q 75 276 75 149 l 75 660 l 200 660 l 200 282 q 242 153 200 200 q 358 107 285 107 q 474 153 432 107 q 515 282 515 200 l 515 660 l 640 660 l 640 276 q 562 67 640 147 z "},"û":{"ha":717,"x_min":75,"x_max":640,"o":"m 178 757 l 121 813 l 310 1028 l 407 1028 l 596 813 l 539 757 l 360 907 l 178 757 m 562 67 q 523 26 562 67 q 358 -14 483 -14 q 154 67 233 -14 q 75 276 75 149 l 75 660 l 200 660 l 200 282 q 242 153 200 200 q 358 107 285 107 q 474 153 432 107 q 515 282 515 200 l 515 660 l 640 660 l 640 276 q 562 67 640 147 z "},"ü":{"ha":717,"x_min":75,"x_max":640,"o":"m 276 794 q 265 782 276 794 q 219 771 254 771 q 163 794 185 771 q 142 851 142 817 q 164 908 142 885 q 219 931 186 931 q 276 908 254 931 q 299 851 299 885 q 276 794 299 817 m 554 794 q 543 782 554 794 q 497 771 532 771 q 441 794 463 771 q 419 851 419 817 q 442 908 419 885 q 497 931 464 931 q 554 908 532 931 q 576 851 576 885 q 554 794 576 817 m 562 67 q 523 26 562 67 q 358 -14 483 -14 q 154 67 233 -14 q 75 276 75 149 l 75 660 l 200 660 l 200 282 q 242 153 200 200 q 358 107 285 107 q 474 153 432 107 q 515 282 515 200 l 515 660 l 640 660 l 640 276 q 562 67 640 147 z "},"ý":{"ha":714,"x_min":22,"x_max":692,"o":"m 274 758 l 217 815 l 399 1039 l 496 940 l 274 758 m 119 -276 l 282 57 l 22 660 l 161 660 l 351 192 l 553 660 l 692 660 l 383 -6 l 258 -276 l 119 -276 z "},"þ":{"ha":808,"x_min":92,"x_max":758,"o":"m 92 -276 l 92 992 l 217 992 l 217 568 q 439 674 296 674 q 666 574 574 674 q 758 329 758 475 q 666 85 758 185 q 439 -14 574 -14 q 217 90 294 -14 l 217 -276 l 92 -276 m 418 104 q 572 167 513 104 q 631 331 631 231 q 572 492 631 429 q 419 556 513 556 q 268 492 326 556 q 210 329 210 429 q 267 167 210 231 q 418 104 325 104 z "},"ÿ":{"ha":714,"x_min":22,"x_max":692,"o":"m 275 794 q 264 782 275 794 q 218 771 253 771 q 161 794 183 771 q 139 851 139 817 q 161 908 139 885 q 218 931 183 931 q 275 908 253 931 q 297 851 297 885 q 275 794 297 817 m 553 794 q 542 782 553 794 q 496 771 531 771 q 439 794 461 771 q 417 851 417 817 q 439 908 417 885 q 496 931 461 931 q 553 908 531 931 q 575 851 575 885 q 553 794 575 817 m 119 -276 l 282 57 l 22 660 l 161 660 l 351 192 l 553 660 l 692 660 l 383 -6 l 258 -276 l 119 -276 z "},"ı":{"ha":308,"x_min":92,"x_max":217,"o":"m 92 0 l 92 660 l 217 660 l 217 0 l 92 0 z "},"Œ":{"ha":1607,"x_min":65,"x_max":1544,"o":"m 553 -14 q 207 131 349 -14 q 65 483 65 276 q 206 834 65 690 q 550 978 346 978 q 903 807 775 978 l 903 964 l 1536 964 l 1536 844 l 1033 844 l 1033 550 l 1499 550 l 1499 436 l 1033 436 l 1033 119 l 1544 119 l 1544 0 l 903 0 l 903 157 q 553 -14 775 -14 m 550 111 q 805 215 707 111 q 903 483 903 319 q 804 749 903 644 q 550 853 706 853 q 299 749 397 853 q 200 483 200 644 q 299 216 200 321 q 550 111 397 111 z "},"œ":{"ha":1310,"x_min":49,"x_max":1265,"o":"m 393 -14 q 149 87 249 -14 q 49 332 49 188 q 148 575 49 476 q 392 674 247 674 q 553 635 479 674 q 675 531 628 597 q 794 635 721 597 q 953 674 867 674 q 1177 582 1089 674 q 1265 350 1265 490 q 1258 283 1265 328 l 742 283 q 815 153 756 201 q 963 104 874 104 q 1143 182 1079 104 l 1224 100 q 961 -14 1126 -14 q 797 24 872 -14 q 675 131 721 63 q 554 24 628 63 q 393 -14 481 -14 m 951 558 q 813 513 868 558 q 742 388 757 467 l 1143 388 q 1082 513 1132 468 q 951 558 1032 558 m 239 170 q 269 139 239 170 q 393 107 300 107 q 547 170 486 107 q 608 332 608 233 q 547 490 608 428 q 393 553 486 553 q 239 490 300 553 q 178 332 178 428 q 239 170 178 233 z "},"ʼ":{"ha":356,"x_min":65,"x_max":288,"o":"m 65 685 l 160 829 q 119 859 136 838 q 103 911 103 881 q 129 978 103 950 q 196 1006 156 1006 q 261 979 235 1006 q 288 914 288 953 q 250 818 288 876 l 136 646 l 65 685 z "},"ˆ":{"ha":586,"x_min":56,"x_max":531,"o":"m 113 757 l 56 813 l 244 1028 l 342 1028 l 531 813 l 475 757 l 294 907 l 113 757 z "},"˚":{"ha":443,"x_min":56,"x_max":388,"o":"m 224 739 q 103 786 150 739 q 56 904 56 833 q 103 1021 56 974 q 224 1068 150 1068 q 341 1021 294 1068 q 388 904 388 974 q 341 786 388 833 q 224 739 294 739 m 224 829 q 274 851 253 829 q 294 904 294 872 q 274 956 294 935 q 224 978 253 978 q 170 957 190 978 q 150 904 150 936 q 170 850 150 871 q 224 829 190 829 z "},"˜":{"ha":633,"x_min":56,"x_max":578,"o":"m 417 761 q 310 793 369 761 q 219 825 251 825 q 124 775 161 825 l 56 842 q 218 933 133 933 q 326 901 267 933 q 415 869 386 869 q 510 921 471 869 l 578 854 q 417 761 499 761 z "},"̀":{"ha":0,"x_min":56,"x_max":335,"o":"m 278 749 l 56 931 l 154 1028 l 335 804 l 278 749 z "},"́":{"ha":0,"x_min":56,"x_max":335,"o":"m 113 758 l 56 815 l 236 1039 l 335 940 l 113 758 z "},"̂":{"ha":0,"x_min":56,"x_max":531,"o":"m 113 757 l 56 813 l 244 1028 l 342 1028 l 531 813 l 475 757 l 294 907 l 113 757 z "},"̃":{"ha":0,"x_min":56,"x_max":578,"o":"m 417 761 q 310 793 369 761 q 219 825 251 825 q 124 775 161 825 l 56 842 q 218 933 133 933 q 326 901 267 933 q 415 869 386 869 q 510 921 471 869 l 578 854 q 417 761 499 761 z "},"̄":{"ha":0,"x_min":56,"x_max":556,"o":"m 56 926 l 556 926 l 556 822 l 56 822 l 56 926 z "},"̈":{"ha":0,"x_min":83,"x_max":519,"o":"m 219 794 q 208 782 219 794 q 163 771 197 771 q 106 794 128 771 q 83 851 83 817 q 106 908 83 885 q 163 931 128 931 q 219 908 197 931 q 242 851 242 885 q 219 794 242 817 m 497 794 q 486 782 497 794 q 440 771 475 771 q 383 794 406 771 q 361 851 361 817 q 383 908 361 885 q 440 931 406 931 q 497 908 475 931 q 519 851 519 885 q 497 794 519 817 z "},"̊":{"ha":0,"x_min":56,"x_max":388,"o":"m 224 739 q 103 786 150 739 q 56 904 56 833 q 103 1021 56 974 q 224 1068 150 1068 q 341 1021 294 1068 q 388 904 388 974 q 341 786 388 833 q 224 739 294 739 m 224 829 q 274 851 253 829 q 294 904 294 872 q 274 956 294 935 q 224 978 253 978 q 170 957 190 978 q 150 904 150 936 q 170 850 150 871 q 224 829 190 829 z "},"̧":{"ha":0,"x_min":17,"x_max":358,"o":"m 179 -290 q 17 -240 90 -290 l 74 -172 q 171 -208 110 -208 q 251 -164 251 -208 q 174 -117 251 -117 l 113 -117 l 156 18 l 250 18 l 229 -49 q 324 -90 289 -58 q 358 -167 358 -122 q 309 -256 358 -221 q 179 -290 260 -290 z "},"–":{"ha":763,"x_min":92,"x_max":671,"o":"m 92 300 l 92 407 l 671 407 l 671 300 l 92 300 z "},"—":{"ha":1183,"x_min":92,"x_max":1083,"o":"m 92 301 l 92 404 l 1083 404 l 1083 301 l 92 301 z "},"‘":{"ha":344,"x_min":71,"x_max":265,"o":"m 265 965 l 190 822 q 236 794 217 818 q 256 739 256 771 q 228 672 256 700 q 164 644 201 644 q 99 672 126 644 q 71 739 71 700 q 101 832 71 775 l 194 1004 l 265 965 z "},"’":{"ha":346,"x_min":81,"x_max":275,"o":"m 81 657 l 156 800 q 110 828 129 804 q 90 883 90 851 q 117 950 90 922 q 183 978 144 978 q 248 950 221 978 q 275 883 275 922 q 244 790 275 850 l 153 618 l 81 657 z "},"‚":{"ha":382,"x_min":99,"x_max":293,"o":"m 99 -153 l 174 -10 q 128 19 147 -4 q 108 74 108 42 q 135 141 108 114 q 201 168 163 168 q 266 140 239 168 q 293 74 293 113 q 263 -18 293 39 l 171 -192 l 99 -153 z "},"“":{"ha":600,"x_min":71,"x_max":521,"o":"m 265 965 l 190 822 q 236 794 217 818 q 256 739 256 771 q 228 672 256 700 q 164 644 201 644 q 99 672 126 644 q 71 739 71 700 q 101 832 71 775 l 194 1004 l 265 965 m 521 965 l 446 822 q 492 794 472 818 q 511 739 511 771 q 484 672 511 700 q 419 644 457 644 q 354 672 382 644 q 326 739 326 700 q 357 832 326 775 l 450 1004 l 521 965 z "},"”":{"ha":601,"x_min":81,"x_max":531,"o":"m 336 657 l 411 800 q 365 828 385 804 q 346 883 346 851 q 373 950 346 922 q 439 978 400 978 q 503 950 476 978 q 531 883 531 922 q 500 790 531 850 l 408 618 l 336 657 m 81 657 l 156 800 q 110 828 129 804 q 90 883 90 851 q 117 950 90 922 q 183 978 144 978 q 248 950 221 978 q 275 883 275 922 q 244 790 275 850 l 153 618 l 81 657 z "},"„":{"ha":638,"x_min":99,"x_max":549,"o":"m 354 -153 l 429 -10 q 383 19 403 -4 q 364 74 364 42 q 391 140 364 113 q 457 168 418 168 q 522 140 494 168 q 549 74 549 113 q 518 -18 549 39 l 426 -192 l 354 -153 m 99 -153 l 174 -10 q 128 19 147 -4 q 108 74 108 42 q 135 140 108 113 q 201 168 163 168 q 266 140 239 168 q 293 74 293 113 q 263 -18 293 39 l 171 -192 l 99 -153 z "},"•":{"ha":458,"x_min":93,"x_max":364,"o":"m 326 410 q 307 390 326 410 q 229 371 288 371 q 132 410 171 371 q 93 507 93 449 q 132 603 93 563 q 229 643 171 643 q 325 603 286 643 q 364 507 364 563 q 326 410 364 449 z "},"…":{"ha":1042,"x_min":111,"x_max":931,"o":"m 585 13 q 573 -1 585 13 q 521 -14 560 -14 q 456 13 482 -14 q 431 78 431 39 q 456 142 431 117 q 521 168 482 168 q 585 142 560 168 q 611 78 611 117 q 585 13 611 39 m 905 13 q 892 -1 905 13 q 840 -14 879 -14 q 776 13 801 -14 q 750 78 750 39 q 776 142 750 117 q 840 168 801 168 q 905 142 879 168 q 931 78 931 117 q 905 13 931 39 m 266 13 q 253 -1 266 13 q 201 -14 240 -14 q 137 13 163 -14 q 111 78 111 39 q 137 142 111 117 q 201 168 163 168 q 266 142 240 168 q 292 78 292 117 q 266 13 292 39 z "},"‹":{"ha":381,"x_min":51,"x_max":331,"o":"m 203 114 l 51 333 l 203 554 l 331 554 l 174 333 l 331 114 l 203 114 z "},"›":{"ha":381,"x_min":50,"x_max":329,"o":"m 50 114 l 208 333 l 50 554 l 178 554 l 329 333 l 178 114 l 50 114 z "},"⁄":{"ha":917,"x_min":47,"x_max":856,"o":"m 517 549 l 463 600 l 749 989 l 856 885 l 517 549 m 386 419 l 440 369 l 154 -19 l 47 83 l 386 419 z "},"⁴":{"ha":486,"x_min":46,"x_max":442,"o":"m 282 475 l 282 576 l 46 576 l 46 638 l 203 964 l 324 964 l 181 671 l 282 671 l 282 771 l 393 771 l 393 671 l 442 671 l 442 576 l 393 576 l 393 475 l 282 475 z "},"€":{"ha":1007,"x_min":35,"x_max":936,"o":"m 35 310 l 35 414 l 132 414 q 128 482 128 447 q 132 553 128 517 l 35 553 l 35 656 l 154 656 q 319 890 201 801 q 594 978 436 978 q 929 833 785 978 l 839 743 q 589 856 742 856 q 408 802 485 856 q 292 656 331 749 l 696 656 l 663 553 l 264 553 q 258 482 261 529 q 264 414 258 456 l 639 414 l 606 310 l 290 310 q 408 162 328 215 q 596 108 488 108 q 846 222 746 108 l 936 133 q 594 -14 796 -14 q 318 75 435 -14 q 154 310 201 164 l 35 310 z "},"−":{"ha":753,"x_min":82,"x_max":671,"o":"m 82 408 l 82 521 l 671 521 l 671 408 l 82 408 z "},"∕":{"ha":542,"x_min":19,"x_max":522,"o":"m 19 -56 l 406 1018 l 522 1018 l 138 -56 l 19 -56 z "},"✓":{"ha":1081,"x_min":31,"x_max":1050,"o":"m 361 108 l 31 435 l 111 515 l 397 228 l 968 854 l 1050 774 l 432 108 l 361 108 z "},"ﬁ":{"ha":796,"x_min":24,"x_max":719,"o":"m 186 0 l 186 546 l 24 546 l 24 660 l 186 660 l 186 779 q 250 941 186 876 q 413 1006 314 1006 q 575 940 506 1006 l 493 858 q 413 889 458 889 q 338 860 364 889 q 311 779 311 831 l 311 660 l 704 660 l 704 0 l 578 0 l 578 546 l 311 546 l 311 0 l 186 0 m 697 752 q 686 741 697 752 q 640 729 675 729 q 584 752 606 729 q 563 810 563 775 q 585 866 563 843 q 640 889 607 889 q 697 866 675 889 q 719 810 719 843 q 697 752 719 775 z "},"ﬂ":{"ha":796,"x_min":24,"x_max":704,"o":"m 186 0 l 186 546 l 24 546 l 24 660 l 186 660 l 186 749 q 259 931 186 856 q 450 1006 332 1006 l 450 889 q 347 849 383 889 q 311 749 311 810 l 311 660 l 579 660 l 579 997 l 704 997 l 704 0 l 579 0 l 579 546 l 311 546 l 311 0 l 186 0 z "}}}
